<svg width="22" height="22" viewBox="0 0 22 22" fill="none" xmlns="http://www.w3.org/2000/svg">
<path d="M21.3212 10.0333C20.3448 9.50363 19.15 9.10703 18.1321 8.6173C16.2769 7.7249 14.6378 6.22508 13.6713 4.41142C13.5944 4.26691 13.5256 4.08848 13.4507 3.93738C13.4105 3.85614 13.3609 3.7177 13.3235 3.65822C13.218 3.49143 13.1583 3.25783 13.0715 3.05105C12.8342 2.48565 12.5857 1.86228 12.3428 1.2989C12.1731 0.905089 12.0575 0.463444 11.6851 0.210352C11.641 0.180487 11.4832 0.0962074 11.4528 0.084059C10.8977 -0.140433 10.2351 0.100004 9.94824 0.623398C9.11184 2.52032 8.51806 4.52455 7.16883 6.11346C5.62986 7.92611 3.98286 8.55276 1.90728 9.48566C1.02331 9.88301 -0.130852 10.1343 0.0120905 11.3563C0.106964 12.1684 0.735405 12.2722 1.34765 12.5511C3.18668 13.3893 4.98674 14.0395 6.4612 15.408C8.41053 17.2174 8.76498 18.9839 9.87993 21.2258C10.2387 21.9471 10.9612 22.2412 11.6727 21.7735C11.7928 21.6945 11.9429 21.5576 12.0246 21.424C12.1058 21.2911 12.1736 21.1205 12.2366 20.9829C12.4772 20.4574 12.6411 19.9842 12.8744 19.4451C13.7295 17.4687 14.7498 15.9051 16.5223 14.6158C17.9854 13.5516 19.7526 13.1021 21.3214 12.2795C22.2302 11.8032 22.2233 10.5226 21.3214 10.0333H21.3212Z" fill="#FFB46E"/>
</svg>
