<svg width="578" height="563" viewBox="0 0 578 563" fill="none" xmlns="http://www.w3.org/2000/svg">
<ellipse cx="286.015" cy="59.0828" rx="0.784341" ry="0.783966" fill="#808080"/>
<path d="M285.754 75.6191V221.113" stroke="#D4D4D4" stroke-width="1.06" stroke-miterlimit="10" stroke-linecap="round"/>
<path d="M285.617 538.27C416.554 538.27 522.699 432.124 522.699 301.188C522.699 170.251 416.554 64.1055 285.617 64.1055C154.68 64.1055 48.5352 170.251 48.5352 301.188C48.5352 432.124 154.68 538.27 285.617 538.27Z" stroke="#D4D4D4" stroke-width="1.89" stroke-miterlimit="10" stroke-linecap="round" stroke-dasharray="3.78 3.78"/>
<ellipse cx="85.8301" cy="419.515" rx="1.3985" ry="1.39783" fill="#666666"/>
<path d="M86.2305 413.954C91.1141 351.887 111.507 285.265 148.075 221.941C185.191 157.686 233.598 106.151 285.823 70.8281" stroke="#D4D4D4" stroke-width="1.89" stroke-miterlimit="10" stroke-linecap="round" stroke-dasharray="3.78 3.78"/>
<ellipse cx="288.131" cy="69.2885" rx="1.3985" ry="1.39783" fill="#666666"/>
<ellipse cx="283.883" cy="69.2885" rx="1.3985" ry="1.39783" fill="#666666"/>
<path d="M288.5 72.4102C339.837 107.674 387.371 158.632 423.939 221.955C461.055 286.211 481.507 353.883 485.991 416.734" stroke="#D4D4D4" stroke-width="1.89" stroke-miterlimit="10" stroke-linecap="round" stroke-dasharray="3.78 3.78"/>
<ellipse cx="83.713" cy="187.253" rx="1.3985" ry="1.39783" fill="#666666"/>
<path d="M88.7148 184.829C144.936 158.026 212.863 142.361 285.999 142.361C359.135 142.361 429.089 158.499 485.799 186.042" stroke="#D4D4D4" stroke-width="1.89" stroke-miterlimit="10" stroke-linecap="round" stroke-dasharray="3.78 3.78"/>
<ellipse cx="488.301" cy="187.253" rx="1.3985" ry="1.39783" fill="#666666"/>
<ellipse cx="75.9328" cy="422.778" rx="0.784341" ry="0.783966" fill="#808080"/>
<path d="M55.554 354.198L289.421 299.09" stroke="#D4D4D4" stroke-width="1.06" stroke-miterlimit="10" stroke-linecap="round"/>
<path d="M211.541 443.186L279.408 313.078" stroke="#D4D4D4" stroke-width="1.06" stroke-miterlimit="10" stroke-linecap="round"/>
<path d="M285.758 301.181L474.284 153.632" stroke="#D4D4D4" stroke-width="1.06" stroke-miterlimit="10" stroke-linecap="round"/>
<ellipse cx="496.087" cy="180.311" rx="0.784341" ry="0.783966" fill="#808080"/>
<ellipse cx="75.9289" cy="180.317" rx="0.784341" ry="0.783966" fill="#808080"/>
<path d="M101.35 159.324L270.5 289.5" stroke="#D4D4D4" stroke-width="1.06" stroke-miterlimit="10" stroke-linecap="round"/>
<path d="M283.35 309.324L354.5 440.5" stroke="#D4D4D4" stroke-width="1.06" stroke-miterlimit="10" stroke-linecap="round"/>
<path d="M283.529 295.672L504.651 352.758" stroke="#D4D4D4" stroke-width="1.06" stroke-miterlimit="10" stroke-linecap="round"/>
<ellipse cx="85.6931" cy="183.431" rx="1.57008" ry="1.04672" fill="#666666"/>
<circle cx="486.064" cy="183.431" r="1.04672" fill="#666666"/>
<path d="M283 530.943C231.847 495.676 184.483 444.714 148.046 381.384C111.064 317.122 90.6848 249.443 86.2168 186.572" stroke="#D4D4D4" stroke-width="1.89" stroke-miterlimit="10" stroke-linecap="round" stroke-dasharray="3.78 3.78"/>
<path d="M486.064 188.664C481.172 250.766 460.746 317.427 424.117 380.788C386.94 445.08 338.452 496.645 286.141 531.988" stroke="#D4D4D4" stroke-width="1.89" stroke-miterlimit="10" stroke-linecap="round" stroke-dasharray="3.78 3.78"/>
<g style="mix-blend-mode:screen">
<path d="M281.568 392.775C333.596 392.775 375.773 350.598 375.773 298.57C375.773 246.542 333.596 204.365 281.568 204.365C229.54 204.365 187.363 246.542 187.363 298.57C187.363 350.598 229.54 392.775 281.568 392.775Z" fill="white"/>
</g>
<ellipse cx="83.5994" cy="415.803" rx="1.57008" ry="1.04672" fill="#666666"/>
<path d="M482.924 418.07C426.756 445.046 358.894 460.812 285.827 460.812C212.76 460.812 142.872 444.57 86.2168 416.85" stroke="#D4D4D4" stroke-width="1.89" stroke-miterlimit="10" stroke-linecap="round" stroke-dasharray="3.78 3.78"/>
<path d="M509.964 413.598C547.539 413.598 577.986 382.988 577.968 345.229C577.95 307.469 547.474 276.859 509.898 276.859C472.322 276.859 441.876 307.469 441.894 345.229C441.912 382.988 472.388 413.598 509.964 413.598Z" fill="#F761B2"/>
<path d="M461.813 224.141C499.389 224.141 529.835 193.531 529.817 155.772C529.799 118.012 499.323 87.4023 461.748 87.4023C424.172 87.4023 393.726 118.012 393.744 155.772C393.762 193.531 424.238 224.141 461.813 224.141Z" fill="#F553C7"/>
<path d="M428.279 174.404V163.904H430.019V174.404H428.279ZM432.197 174.404V166.904H433.772L433.877 168.284V174.404H432.197ZM437.282 174.404V170.564H438.962V174.404H437.282ZM437.282 170.564C437.282 169.964 437.212 169.504 437.072 169.184C436.942 168.854 436.752 168.624 436.502 168.494C436.262 168.364 435.977 168.299 435.647 168.299C435.087 168.289 434.652 168.474 434.342 168.854C434.032 169.234 433.877 169.779 433.877 170.489H433.247C433.247 169.699 433.362 169.024 433.592 168.464C433.822 167.894 434.152 167.464 434.582 167.174C435.012 166.874 435.522 166.724 436.112 166.724C436.712 166.724 437.222 166.844 437.642 167.084C438.072 167.324 438.397 167.699 438.617 168.209C438.847 168.709 438.962 169.364 438.962 170.174V170.564H437.282ZM443.649 174.584C442.859 174.584 442.254 174.389 441.834 173.999C441.424 173.599 441.219 173.029 441.219 172.289V164.564H442.884V171.974C442.884 172.324 442.964 172.589 443.124 172.769C443.294 172.949 443.539 173.039 443.859 173.039C443.959 173.039 444.069 173.019 444.189 172.979C444.309 172.939 444.444 172.864 444.594 172.754L445.209 174.029C444.949 174.209 444.689 174.344 444.429 174.434C444.169 174.534 443.909 174.584 443.649 174.584ZM439.974 168.344V166.904H444.909V168.344H439.974ZM449.795 174.584C449.065 174.584 448.415 174.419 447.845 174.089C447.285 173.749 446.84 173.284 446.51 172.694C446.19 172.104 446.03 171.424 446.03 170.654C446.03 169.884 446.195 169.204 446.525 168.614C446.855 168.024 447.305 167.564 447.875 167.234C448.455 166.894 449.115 166.724 449.855 166.724C450.525 166.724 451.13 166.899 451.67 167.249C452.21 167.589 452.635 168.084 452.945 168.734C453.265 169.384 453.425 170.159 453.425 171.059H447.53L447.755 170.849C447.755 171.309 447.855 171.709 448.055 172.049C448.255 172.379 448.52 172.634 448.85 172.814C449.18 172.994 449.545 173.084 449.945 173.084C450.405 173.084 450.785 172.984 451.085 172.784C451.385 172.574 451.62 172.304 451.79 171.974L453.275 172.604C453.065 173.004 452.795 173.354 452.465 173.654C452.145 173.954 451.76 174.184 451.31 174.344C450.87 174.504 450.365 174.584 449.795 174.584ZM447.86 169.979L447.62 169.769H451.85L451.625 169.979C451.625 169.569 451.535 169.234 451.355 168.974C451.175 168.704 450.945 168.504 450.665 168.374C450.395 168.234 450.11 168.164 449.81 168.164C449.51 168.164 449.21 168.234 448.91 168.374C448.61 168.504 448.36 168.704 448.16 168.974C447.96 169.234 447.86 169.569 447.86 169.979ZM454.712 174.404V163.904H456.392V174.404H454.712ZM458.257 174.404V163.904H459.937V174.404H458.257ZM461.907 174.404V166.904H463.572V174.404H461.907ZM462.747 165.479C462.477 165.479 462.242 165.384 462.042 165.194C461.852 164.994 461.757 164.759 461.757 164.489C461.757 164.219 461.852 163.989 462.042 163.799C462.242 163.609 462.477 163.514 462.747 163.514C463.017 163.514 463.247 163.609 463.437 163.799C463.637 163.989 463.737 164.219 463.737 164.489C463.737 164.759 463.637 164.994 463.437 165.194C463.247 165.384 463.017 165.479 462.747 165.479ZM468.777 177.599C468.247 177.599 467.767 177.554 467.337 177.464C466.917 177.374 466.562 177.269 466.272 177.149C465.982 177.029 465.757 176.914 465.597 176.804L466.242 175.454C466.382 175.524 466.567 175.609 466.797 175.709C467.037 175.819 467.317 175.914 467.637 175.994C467.957 176.074 468.317 176.114 468.717 176.114C469.147 176.114 469.532 176.024 469.872 175.844C470.212 175.674 470.477 175.409 470.667 175.049C470.857 174.689 470.952 174.229 470.952 173.669V166.904H472.632V173.624C472.632 174.474 472.472 175.194 472.152 175.784C471.832 176.384 471.382 176.834 470.802 177.134C470.222 177.444 469.547 177.599 468.777 177.599ZM468.522 174.254C467.842 174.254 467.247 174.099 466.737 173.789C466.237 173.479 465.842 173.049 465.552 172.499C465.272 171.939 465.132 171.294 465.132 170.564C465.132 169.784 465.272 169.109 465.552 168.539C465.842 167.969 466.237 167.524 466.737 167.204C467.247 166.884 467.842 166.724 468.522 166.724C469.132 166.724 469.662 166.884 470.112 167.204C470.572 167.524 470.927 167.974 471.177 168.554C471.427 169.124 471.552 169.799 471.552 170.579C471.552 171.319 471.427 171.964 471.177 172.514C470.927 173.064 470.572 173.494 470.112 173.804C469.662 174.104 469.132 174.254 468.522 174.254ZM468.987 172.829C469.367 172.829 469.697 172.729 469.977 172.529C470.267 172.329 470.492 172.059 470.652 171.719C470.812 171.369 470.892 170.969 470.892 170.519C470.892 170.059 470.812 169.659 470.652 169.319C470.492 168.969 470.267 168.699 469.977 168.509C469.687 168.309 469.352 168.209 468.972 168.209C468.572 168.209 468.217 168.309 467.907 168.509C467.607 168.699 467.367 168.969 467.187 169.319C467.017 169.659 466.932 170.059 466.932 170.519C466.932 170.969 467.017 171.369 467.187 171.719C467.367 172.059 467.612 172.329 467.922 172.529C468.232 172.729 468.587 172.829 468.987 172.829ZM477.832 174.584C477.102 174.584 476.452 174.419 475.882 174.089C475.322 173.749 474.877 173.284 474.547 172.694C474.227 172.104 474.067 171.424 474.067 170.654C474.067 169.884 474.232 169.204 474.562 168.614C474.892 168.024 475.342 167.564 475.912 167.234C476.492 166.894 477.152 166.724 477.892 166.724C478.562 166.724 479.167 166.899 479.707 167.249C480.247 167.589 480.672 168.084 480.982 168.734C481.302 169.384 481.462 170.159 481.462 171.059H475.567L475.792 170.849C475.792 171.309 475.892 171.709 476.092 172.049C476.292 172.379 476.557 172.634 476.887 172.814C477.217 172.994 477.582 173.084 477.982 173.084C478.442 173.084 478.822 172.984 479.122 172.784C479.422 172.574 479.657 172.304 479.827 171.974L481.312 172.604C481.102 173.004 480.832 173.354 480.502 173.654C480.182 173.954 479.797 174.184 479.347 174.344C478.907 174.504 478.402 174.584 477.832 174.584ZM475.897 169.979L475.657 169.769H479.887L479.662 169.979C479.662 169.569 479.572 169.234 479.392 168.974C479.212 168.704 478.982 168.504 478.702 168.374C478.432 168.234 478.147 168.164 477.847 168.164C477.547 168.164 477.247 168.234 476.947 168.374C476.647 168.504 476.397 168.704 476.197 168.974C475.997 169.234 475.897 169.569 475.897 169.979ZM482.749 174.404V166.904H484.324L484.429 168.284V174.404H482.749ZM487.834 174.404V170.564H489.514V174.404H487.834ZM487.834 170.564C487.834 169.964 487.764 169.504 487.624 169.184C487.494 168.854 487.304 168.624 487.054 168.494C486.814 168.364 486.529 168.299 486.199 168.299C485.639 168.289 485.204 168.474 484.894 168.854C484.584 169.234 484.429 169.779 484.429 170.489H483.799C483.799 169.699 483.914 169.024 484.144 168.464C484.374 167.894 484.704 167.464 485.134 167.174C485.564 166.874 486.074 166.724 486.664 166.724C487.264 166.724 487.774 166.844 488.194 167.084C488.624 167.324 488.949 167.699 489.169 168.209C489.399 168.709 489.514 169.364 489.514 170.174V170.564H487.834ZM494.201 174.584C493.411 174.584 492.806 174.389 492.386 173.999C491.976 173.599 491.771 173.029 491.771 172.289V164.564H493.436V171.974C493.436 172.324 493.516 172.589 493.676 172.769C493.846 172.949 494.091 173.039 494.411 173.039C494.511 173.039 494.621 173.019 494.741 172.979C494.861 172.939 494.996 172.864 495.146 172.754L495.761 174.029C495.501 174.209 495.241 174.344 494.981 174.434C494.721 174.534 494.461 174.584 494.201 174.584ZM490.526 168.344V166.904H495.461V168.344H490.526ZM439.983 191.584C439.433 191.584 438.928 191.519 438.468 191.389C438.018 191.259 437.618 191.079 437.268 190.849C436.928 190.619 436.643 190.364 436.413 190.084C436.193 189.794 436.038 189.494 435.948 189.184L437.658 188.659C437.788 189.029 438.043 189.354 438.423 189.634C438.803 189.914 439.273 190.059 439.833 190.069C440.483 190.069 440.998 189.934 441.378 189.664C441.758 189.394 441.948 189.039 441.948 188.599C441.948 188.199 441.788 187.874 441.468 187.624C441.148 187.364 440.718 187.164 440.178 187.024L438.888 186.694C438.398 186.564 437.953 186.374 437.553 186.124C437.163 185.874 436.853 185.559 436.623 185.179C436.403 184.799 436.293 184.349 436.293 183.829C436.293 182.849 436.613 182.089 437.253 181.549C437.893 180.999 438.808 180.724 439.998 180.724C440.668 180.724 441.253 180.829 441.753 181.039C442.263 181.239 442.683 181.519 443.013 181.879C443.343 182.229 443.588 182.629 443.748 183.079L442.068 183.619C441.918 183.219 441.658 182.889 441.288 182.629C440.918 182.369 440.458 182.239 439.908 182.239C439.338 182.239 438.888 182.374 438.558 182.644C438.238 182.914 438.078 183.289 438.078 183.769C438.078 184.159 438.203 184.464 438.453 184.684C438.713 184.894 439.063 185.054 439.503 185.164L440.793 185.479C441.733 185.709 442.463 186.104 442.983 186.664C443.503 187.224 443.763 187.844 443.763 188.524C443.763 189.124 443.618 189.654 443.328 190.114C443.038 190.574 442.608 190.934 442.038 191.194C441.478 191.454 440.793 191.584 439.983 191.584ZM448.883 191.584C448.113 191.584 447.433 191.419 446.843 191.089C446.253 190.749 445.788 190.284 445.448 189.694C445.118 189.104 444.953 188.424 444.953 187.654C444.953 186.884 445.118 186.204 445.448 185.614C445.788 185.024 446.248 184.564 446.828 184.234C447.418 183.894 448.093 183.724 448.853 183.724C449.593 183.724 450.263 183.904 450.863 184.264C451.463 184.614 451.908 185.119 452.198 185.779L450.638 186.379C450.478 186.049 450.233 185.784 449.903 185.584C449.573 185.384 449.198 185.284 448.778 185.284C448.368 185.284 448.003 185.389 447.683 185.599C447.363 185.799 447.113 186.079 446.933 186.439C446.753 186.789 446.663 187.194 446.663 187.654C446.663 188.114 446.753 188.524 446.933 188.884C447.123 189.234 447.378 189.514 447.698 189.724C448.028 189.924 448.398 190.024 448.808 190.024C449.228 190.024 449.603 189.919 449.933 189.709C450.263 189.489 450.508 189.194 450.668 188.824L452.228 189.424C451.938 190.104 451.493 190.634 450.893 191.014C450.303 191.394 449.633 191.584 448.883 191.584ZM456.982 191.584C456.232 191.584 455.562 191.419 454.972 191.089C454.392 190.749 453.937 190.284 453.607 189.694C453.277 189.104 453.112 188.424 453.112 187.654C453.112 186.884 453.272 186.204 453.592 185.614C453.922 185.024 454.377 184.564 454.957 184.234C455.537 183.894 456.202 183.724 456.952 183.724C457.702 183.724 458.367 183.894 458.947 184.234C459.527 184.564 459.977 185.024 460.297 185.614C460.627 186.204 460.792 186.884 460.792 187.654C460.792 188.424 460.632 189.104 460.312 189.694C459.992 190.284 459.542 190.749 458.962 191.089C458.382 191.419 457.722 191.584 456.982 191.584ZM456.982 190.039C457.392 190.039 457.757 189.939 458.077 189.739C458.397 189.529 458.647 189.249 458.827 188.899C459.007 188.539 459.097 188.124 459.097 187.654C459.097 187.184 459.002 186.774 458.812 186.424C458.632 186.064 458.382 185.784 458.062 185.584C457.742 185.374 457.372 185.269 456.952 185.269C456.532 185.269 456.162 185.369 455.842 185.569C455.522 185.769 455.272 186.049 455.092 186.409C454.912 186.769 454.822 187.184 454.822 187.654C454.822 188.124 454.912 188.539 455.092 188.899C455.282 189.249 455.537 189.529 455.857 189.739C456.187 189.939 456.562 190.039 456.982 190.039ZM463.358 187.414C463.358 186.604 463.513 185.939 463.823 185.419C464.133 184.899 464.533 184.514 465.023 184.264C465.523 184.004 466.043 183.874 466.583 183.874V185.479C466.123 185.479 465.688 185.544 465.278 185.674C464.878 185.794 464.553 185.994 464.303 186.274C464.053 186.554 463.928 186.924 463.928 187.384L463.358 187.414ZM462.248 191.404V183.904H463.928V191.404H462.248ZM467.803 191.404V183.904H469.468V191.404H467.803ZM468.643 182.479C468.373 182.479 468.138 182.384 467.938 182.194C467.748 181.994 467.653 181.759 467.653 181.489C467.653 181.219 467.748 180.989 467.938 180.799C468.138 180.609 468.373 180.514 468.643 180.514C468.913 180.514 469.143 180.609 469.333 180.799C469.533 180.989 469.633 181.219 469.633 181.489C469.633 181.759 469.533 181.994 469.333 182.194C469.143 182.384 468.913 182.479 468.643 182.479ZM471.448 191.404V183.904H473.023L473.128 185.284V191.404H471.448ZM476.533 191.404V187.564H478.213V191.404H476.533ZM476.533 187.564C476.533 186.964 476.463 186.504 476.323 186.184C476.193 185.854 476.003 185.624 475.753 185.494C475.513 185.364 475.228 185.299 474.898 185.299C474.338 185.289 473.903 185.474 473.593 185.854C473.283 186.234 473.128 186.779 473.128 187.489H472.498C472.498 186.699 472.613 186.024 472.843 185.464C473.073 184.894 473.403 184.464 473.833 184.174C474.263 183.874 474.773 183.724 475.363 183.724C475.963 183.724 476.473 183.844 476.893 184.084C477.323 184.324 477.648 184.699 477.868 185.209C478.098 185.709 478.213 186.364 478.213 187.174V187.564H476.533ZM483.139 194.599C482.609 194.599 482.129 194.554 481.699 194.464C481.279 194.374 480.924 194.269 480.634 194.149C480.344 194.029 480.119 193.914 479.959 193.804L480.604 192.454C480.744 192.524 480.929 192.609 481.159 192.709C481.399 192.819 481.679 192.914 481.999 192.994C482.319 193.074 482.679 193.114 483.079 193.114C483.509 193.114 483.894 193.024 484.234 192.844C484.574 192.674 484.839 192.409 485.029 192.049C485.219 191.689 485.314 191.229 485.314 190.669V183.904H486.994V190.624C486.994 191.474 486.834 192.194 486.514 192.784C486.194 193.384 485.744 193.834 485.164 194.134C484.584 194.444 483.909 194.599 483.139 194.599ZM482.884 191.254C482.204 191.254 481.609 191.099 481.099 190.789C480.599 190.479 480.204 190.049 479.914 189.499C479.634 188.939 479.494 188.294 479.494 187.564C479.494 186.784 479.634 186.109 479.914 185.539C480.204 184.969 480.599 184.524 481.099 184.204C481.609 183.884 482.204 183.724 482.884 183.724C483.494 183.724 484.024 183.884 484.474 184.204C484.934 184.524 485.289 184.974 485.539 185.554C485.789 186.124 485.914 186.799 485.914 187.579C485.914 188.319 485.789 188.964 485.539 189.514C485.289 190.064 484.934 190.494 484.474 190.804C484.024 191.104 483.494 191.254 482.884 191.254ZM483.349 189.829C483.729 189.829 484.059 189.729 484.339 189.529C484.629 189.329 484.854 189.059 485.014 188.719C485.174 188.369 485.254 187.969 485.254 187.519C485.254 187.059 485.174 186.659 485.014 186.319C484.854 185.969 484.629 185.699 484.339 185.509C484.049 185.309 483.714 185.209 483.334 185.209C482.934 185.209 482.579 185.309 482.269 185.509C481.969 185.699 481.729 185.969 481.549 186.319C481.379 186.659 481.294 187.059 481.294 187.519C481.294 187.969 481.379 188.369 481.549 188.719C481.729 189.059 481.974 189.329 482.284 189.529C482.594 189.729 482.949 189.829 483.349 189.829Z" fill="white"/>
<path d="M483.79 365.955L486.88 355.455H488.65L485.47 365.955H483.79ZM477.43 365.955L474.295 355.455H476.05L479.125 365.955H477.43ZM477.655 365.955L480.61 355.455H482.215L479.275 365.955H477.655ZM483.625 365.955L480.73 355.455H482.335L485.32 365.955H483.625ZM489.724 365.955V355.455H491.404V365.955H489.724ZM494.809 365.955V362.115H496.489V365.955H494.809ZM494.809 362.115C494.809 361.515 494.739 361.055 494.599 360.735C494.459 360.405 494.264 360.175 494.014 360.045C493.774 359.915 493.494 359.85 493.174 359.85C492.604 359.84 492.164 360.025 491.854 360.405C491.554 360.785 491.404 361.33 491.404 362.04H490.759C490.759 361.25 490.874 360.575 491.104 360.015C491.344 359.445 491.679 359.015 492.109 358.725C492.539 358.425 493.049 358.275 493.639 358.275C494.229 358.275 494.739 358.395 495.169 358.635C495.599 358.875 495.924 359.25 496.144 359.76C496.374 360.26 496.489 360.915 496.489 361.725V362.115H494.809ZM502.765 365.955L502.69 364.545V362.1C502.69 361.59 502.635 361.165 502.525 360.825C502.425 360.475 502.255 360.21 502.015 360.03C501.785 359.84 501.475 359.745 501.085 359.745C500.725 359.745 500.41 359.82 500.14 359.97C499.87 360.12 499.64 360.355 499.45 360.675L497.98 360.135C498.14 359.805 498.35 359.5 498.61 359.22C498.88 358.93 499.215 358.7 499.615 358.53C500.025 358.36 500.515 358.275 501.085 358.275C501.815 358.275 502.425 358.42 502.915 358.71C503.405 358.99 503.765 359.395 503.995 359.925C504.235 360.455 504.355 361.095 504.355 361.845L504.31 365.955H502.765ZM500.605 366.135C499.705 366.135 499.005 365.935 498.505 365.535C498.015 365.135 497.77 364.57 497.77 363.84C497.77 363.06 498.03 362.465 498.55 362.055C499.08 361.645 499.815 361.44 500.755 361.44H502.765V362.73H501.295C500.625 362.73 500.155 362.825 499.885 363.015C499.615 363.195 499.48 363.455 499.48 363.795C499.48 364.085 499.595 364.315 499.825 364.485C500.065 364.645 500.395 364.725 500.815 364.725C501.195 364.725 501.525 364.64 501.805 364.47C502.085 364.3 502.3 364.075 502.45 363.795C502.61 363.515 502.69 363.2 502.69 362.85H503.185C503.185 363.87 502.98 364.675 502.57 365.265C502.16 365.845 501.505 366.135 500.605 366.135ZM509.042 366.135C508.252 366.135 507.647 365.94 507.227 365.55C506.817 365.15 506.612 364.58 506.612 363.84V356.115H508.277V363.525C508.277 363.875 508.357 364.14 508.517 364.32C508.687 364.5 508.932 364.59 509.252 364.59C509.352 364.59 509.462 364.57 509.582 364.53C509.702 364.49 509.837 364.415 509.987 364.305L510.602 365.58C510.342 365.76 510.082 365.895 509.822 365.985C509.562 366.085 509.302 366.135 509.042 366.135ZM505.367 359.895V358.455H510.302V359.895H505.367ZM514.675 366.135C514.175 366.135 513.715 366.06 513.295 365.91C512.875 365.76 512.515 365.55 512.215 365.28C511.915 365 511.685 364.675 511.525 364.305L512.98 363.66C513.13 363.94 513.35 364.175 513.64 364.365C513.94 364.555 514.27 364.65 514.63 364.65C515.02 364.65 515.33 364.585 515.56 364.455C515.8 364.315 515.92 364.125 515.92 363.885C515.92 363.655 515.83 363.48 515.65 363.36C515.47 363.23 515.215 363.125 514.885 363.045L514.18 362.85C513.47 362.67 512.915 362.385 512.515 361.995C512.115 361.595 511.915 361.14 511.915 360.63C511.915 359.88 512.155 359.3 512.635 358.89C513.125 358.48 513.825 358.275 514.735 358.275C515.195 358.275 515.615 358.345 515.995 358.485C516.385 358.615 516.72 358.805 517 359.055C517.28 359.295 517.475 359.58 517.585 359.91L516.19 360.54C516.09 360.29 515.9 360.1 515.62 359.97C515.34 359.83 515.03 359.76 514.69 359.76C514.35 359.76 514.085 359.835 513.895 359.985C513.705 360.125 513.61 360.325 513.61 360.585C513.61 360.735 513.695 360.875 513.865 361.005C514.035 361.125 514.28 361.225 514.6 361.305L515.485 361.515C515.975 361.635 516.375 361.825 516.685 362.085C516.995 362.335 517.225 362.62 517.375 362.94C517.525 363.25 517.6 363.565 517.6 363.885C517.6 364.335 517.47 364.73 517.21 365.07C516.96 365.41 516.615 365.675 516.175 365.865C515.735 366.045 515.235 366.135 514.675 366.135ZM526.523 365.955L522.428 355.455H524.168L528.368 365.955H526.523ZM518.138 365.955L522.323 355.455H524.078L519.983 365.955H518.138ZM520.103 363.375V361.83H526.388V363.375H520.103ZM529.496 368.955V358.455H531.071L531.176 359.835V368.955H529.496ZM533.546 366.135C532.916 366.135 532.371 365.975 531.911 365.655C531.461 365.325 531.116 364.865 530.876 364.275C530.636 363.685 530.516 362.995 530.516 362.205C530.516 361.405 530.636 360.715 530.876 360.135C531.116 359.545 531.461 359.09 531.911 358.77C532.371 358.44 532.916 358.275 533.546 358.275C534.226 358.275 534.816 358.44 535.316 358.77C535.826 359.09 536.221 359.545 536.501 360.135C536.791 360.715 536.936 361.405 536.936 362.205C536.936 362.995 536.791 363.685 536.501 364.275C536.221 364.865 535.826 365.325 535.316 365.655C534.816 365.975 534.226 366.135 533.546 366.135ZM533.126 364.605C533.526 364.605 533.881 364.505 534.191 364.305C534.501 364.095 534.746 363.81 534.926 363.45C535.116 363.09 535.211 362.675 535.211 362.205C535.211 361.735 535.121 361.32 534.941 360.96C534.771 360.6 534.531 360.32 534.221 360.12C533.911 359.92 533.551 359.82 533.141 359.82C532.761 359.82 532.421 359.92 532.121 360.12C531.821 360.32 531.586 360.6 531.416 360.96C531.256 361.32 531.176 361.735 531.176 362.205C531.176 362.675 531.256 363.09 531.416 363.45C531.586 363.81 531.816 364.095 532.106 364.305C532.406 364.505 532.746 364.605 533.126 364.605ZM538.446 368.955V358.455H540.021L540.126 359.835V368.955H538.446ZM542.496 366.135C541.866 366.135 541.321 365.975 540.861 365.655C540.411 365.325 540.066 364.865 539.826 364.275C539.586 363.685 539.466 362.995 539.466 362.205C539.466 361.405 539.586 360.715 539.826 360.135C540.066 359.545 540.411 359.09 540.861 358.77C541.321 358.44 541.866 358.275 542.496 358.275C543.176 358.275 543.766 358.44 544.266 358.77C544.776 359.09 545.171 359.545 545.451 360.135C545.741 360.715 545.886 361.405 545.886 362.205C545.886 362.995 545.741 363.685 545.451 364.275C545.171 364.865 544.776 365.325 544.266 365.655C543.766 365.975 543.176 366.135 542.496 366.135ZM542.076 364.605C542.476 364.605 542.831 364.505 543.141 364.305C543.451 364.095 543.696 363.81 543.876 363.45C544.066 363.09 544.161 362.675 544.161 362.205C544.161 361.735 544.071 361.32 543.891 360.96C543.721 360.6 543.481 360.32 543.171 360.12C542.861 359.92 542.501 359.82 542.091 359.82C541.711 359.82 541.371 359.92 541.071 360.12C540.771 360.32 540.536 360.6 540.366 360.96C540.206 361.32 540.126 361.735 540.126 362.205C540.126 362.675 540.206 363.09 540.366 363.45C540.536 363.81 540.766 364.095 541.056 364.305C541.356 364.505 541.696 364.605 542.076 364.605ZM488.867 383.955V373.455H490.667L496.247 381.045V373.455H497.987V383.955H496.247L490.607 376.275V383.955H488.867ZM504.743 383.955L504.668 382.545V380.1C504.668 379.59 504.613 379.165 504.503 378.825C504.403 378.475 504.233 378.21 503.993 378.03C503.763 377.84 503.453 377.745 503.063 377.745C502.703 377.745 502.388 377.82 502.118 377.97C501.848 378.12 501.618 378.355 501.428 378.675L499.958 378.135C500.118 377.805 500.328 377.5 500.588 377.22C500.858 376.93 501.193 376.7 501.593 376.53C502.003 376.36 502.493 376.275 503.063 376.275C503.793 376.275 504.403 376.42 504.893 376.71C505.383 376.99 505.743 377.395 505.973 377.925C506.213 378.455 506.333 379.095 506.333 379.845L506.288 383.955H504.743ZM502.583 384.135C501.683 384.135 500.983 383.935 500.483 383.535C499.993 383.135 499.748 382.57 499.748 381.84C499.748 381.06 500.008 380.465 500.528 380.055C501.058 379.645 501.793 379.44 502.733 379.44H504.743V380.73H503.273C502.603 380.73 502.133 380.825 501.863 381.015C501.593 381.195 501.458 381.455 501.458 381.795C501.458 382.085 501.573 382.315 501.803 382.485C502.043 382.645 502.373 382.725 502.793 382.725C503.173 382.725 503.503 382.64 503.783 382.47C504.063 382.3 504.278 382.075 504.428 381.795C504.588 381.515 504.668 381.2 504.668 380.85H505.163C505.163 381.87 504.958 382.675 504.548 383.265C504.138 383.845 503.483 384.135 502.583 384.135ZM511.019 384.135C510.229 384.135 509.624 383.94 509.204 383.55C508.794 383.15 508.589 382.58 508.589 381.84V374.115H510.254V381.525C510.254 381.875 510.334 382.14 510.494 382.32C510.664 382.5 510.909 382.59 511.229 382.59C511.329 382.59 511.439 382.57 511.559 382.53C511.679 382.49 511.814 382.415 511.964 382.305L512.579 383.58C512.319 383.76 512.059 383.895 511.799 383.985C511.539 384.085 511.279 384.135 511.019 384.135ZM507.344 377.895V376.455H512.279V377.895H507.344ZM514.028 383.955V376.455H515.693V383.955H514.028ZM514.868 375.03C514.598 375.03 514.363 374.935 514.163 374.745C513.973 374.545 513.878 374.31 513.878 374.04C513.878 373.77 513.973 373.54 514.163 373.35C514.363 373.16 514.598 373.065 514.868 373.065C515.138 373.065 515.368 373.16 515.558 373.35C515.758 373.54 515.858 373.77 515.858 374.04C515.858 374.31 515.758 374.545 515.558 374.745C515.368 374.935 515.138 375.03 514.868 375.03ZM520.088 383.955L523.013 376.455H524.753L521.663 383.955H520.088ZM519.968 383.955L516.863 376.455H518.588L521.528 383.955H519.968ZM528.943 384.135C528.213 384.135 527.563 383.97 526.993 383.64C526.433 383.3 525.988 382.835 525.658 382.245C525.338 381.655 525.178 380.975 525.178 380.205C525.178 379.435 525.343 378.755 525.673 378.165C526.003 377.575 526.453 377.115 527.023 376.785C527.603 376.445 528.263 376.275 529.003 376.275C529.673 376.275 530.278 376.45 530.818 376.8C531.358 377.14 531.783 377.635 532.093 378.285C532.413 378.935 532.573 379.71 532.573 380.61H526.678L526.903 380.4C526.903 380.86 527.003 381.26 527.203 381.6C527.403 381.93 527.668 382.185 527.998 382.365C528.328 382.545 528.693 382.635 529.093 382.635C529.553 382.635 529.933 382.535 530.233 382.335C530.533 382.125 530.768 381.855 530.938 381.525L532.423 382.155C532.213 382.555 531.943 382.905 531.613 383.205C531.293 383.505 530.908 383.735 530.458 383.895C530.018 384.055 529.513 384.135 528.943 384.135ZM527.008 379.53L526.768 379.32H530.998L530.773 379.53C530.773 379.12 530.683 378.785 530.503 378.525C530.323 378.255 530.093 378.055 529.813 377.925C529.543 377.785 529.258 377.715 528.958 377.715C528.658 377.715 528.358 377.785 528.058 377.925C527.758 378.055 527.508 378.255 527.308 378.525C527.108 378.785 527.008 379.12 527.008 379.53Z" fill="white"/>
<path d="M285.987 136.768C323.562 136.768 354.017 106.151 354.008 68.3839C354 30.6165 323.532 0 285.957 0C248.381 0 217.927 30.6165 217.935 68.3839C217.943 106.151 248.411 136.768 285.987 136.768Z" fill="#C138EE"/>
<path d="M247.341 78.1523V69.2423H244.116V67.6523H252.306V69.2423H249.081V78.1523H247.341ZM259.925 78.1523L262.43 70.6523H264.125L261.575 78.1523H259.925ZM254.9 78.1523L257.345 70.6523H258.83L256.415 78.1523H254.9ZM254.75 78.1523L252.2 70.6523H253.895L256.34 78.1523H254.75ZM259.91 78.1523L257.51 70.6523H258.995L261.44 78.1523H259.91ZM268.457 78.3323C267.707 78.3323 267.037 78.1673 266.447 77.8373C265.867 77.4973 265.412 77.0323 265.082 76.4423C264.752 75.8523 264.587 75.1723 264.587 74.4023C264.587 73.6323 264.747 72.9523 265.067 72.3623C265.397 71.7723 265.852 71.3123 266.432 70.9823C267.012 70.6423 267.677 70.4723 268.427 70.4723C269.177 70.4723 269.842 70.6423 270.422 70.9823C271.002 71.3123 271.452 71.7723 271.772 72.3623C272.102 72.9523 272.267 73.6323 272.267 74.4023C272.267 75.1723 272.107 75.8523 271.787 76.4423C271.467 77.0323 271.017 77.4973 270.437 77.8373C269.857 78.1673 269.197 78.3323 268.457 78.3323ZM268.457 76.7873C268.867 76.7873 269.232 76.6873 269.552 76.4873C269.872 76.2773 270.122 75.9973 270.302 75.6473C270.482 75.2873 270.572 74.8723 270.572 74.4023C270.572 73.9323 270.477 73.5223 270.287 73.1723C270.107 72.8123 269.857 72.5323 269.537 72.3323C269.217 72.1223 268.847 72.0173 268.427 72.0173C268.007 72.0173 267.637 72.1173 267.317 72.3173C266.997 72.5173 266.747 72.7973 266.567 73.1573C266.387 73.5173 266.297 73.9323 266.297 74.4023C266.297 74.8723 266.387 75.2873 266.567 75.6473C266.757 75.9973 267.012 76.2773 267.332 76.4873C267.662 76.6873 268.037 76.7873 268.457 76.7873ZM273.633 74.4173V72.9623H278.133V74.4173H273.633ZM288.59 78.1523L291.68 67.6523H293.45L290.27 78.1523H288.59ZM282.23 78.1523L279.095 67.6523H280.85L283.925 78.1523H282.23ZM282.455 78.1523L285.41 67.6523H287.015L284.075 78.1523H282.455ZM288.425 78.1523L285.53 67.6523H287.135L290.12 78.1523H288.425ZM298.454 78.1523L298.379 76.7423V74.2973C298.379 73.7873 298.324 73.3623 298.214 73.0223C298.114 72.6723 297.944 72.4073 297.704 72.2273C297.474 72.0373 297.164 71.9423 296.774 71.9423C296.414 71.9423 296.099 72.0173 295.829 72.1673C295.559 72.3173 295.329 72.5523 295.139 72.8723L293.669 72.3323C293.829 72.0023 294.039 71.6973 294.299 71.4173C294.569 71.1273 294.904 70.8973 295.304 70.7273C295.714 70.5573 296.204 70.4723 296.774 70.4723C297.504 70.4723 298.114 70.6173 298.604 70.9073C299.094 71.1873 299.454 71.5923 299.684 72.1223C299.924 72.6523 300.044 73.2923 300.044 74.0423L299.999 78.1523H298.454ZM296.294 78.3323C295.394 78.3323 294.694 78.1323 294.194 77.7323C293.704 77.3323 293.459 76.7673 293.459 76.0373C293.459 75.2573 293.719 74.6623 294.239 74.2523C294.769 73.8423 295.504 73.6373 296.444 73.6373H298.454V74.9273H296.984C296.314 74.9273 295.844 75.0223 295.574 75.2123C295.304 75.3923 295.169 75.6523 295.169 75.9923C295.169 76.2823 295.284 76.5123 295.514 76.6823C295.754 76.8423 296.084 76.9223 296.504 76.9223C296.884 76.9223 297.214 76.8373 297.494 76.6673C297.774 76.4973 297.989 76.2723 298.139 75.9923C298.299 75.7123 298.379 75.3973 298.379 75.0473H298.874C298.874 76.0673 298.669 76.8723 298.259 77.4623C297.849 78.0423 297.194 78.3323 296.294 78.3323ZM302.754 81.3323C302.514 81.3323 302.244 81.2873 301.944 81.1973C301.654 81.1073 301.374 80.9923 301.104 80.8523L301.734 79.4873C301.924 79.5773 302.099 79.6473 302.259 79.6973C302.419 79.7573 302.549 79.7873 302.649 79.7873C302.889 79.7873 303.089 79.7223 303.249 79.5923C303.419 79.4723 303.554 79.2923 303.654 79.0523L304.539 76.9823L307.074 70.6523H308.904L305.424 78.9473C305.214 79.4273 304.999 79.8473 304.779 80.2073C304.569 80.5673 304.304 80.8423 303.984 81.0323C303.664 81.2323 303.254 81.3323 302.754 81.3323ZM304.089 78.1523L300.729 70.6523H302.559L305.169 76.9673L305.709 78.1523H304.089ZM321.112 78.1523L317.017 67.6523H318.757L322.957 78.1523H321.112ZM312.727 78.1523L316.912 67.6523H318.667L314.572 78.1523H312.727ZM314.692 75.5723V74.0273H320.977V75.5723H314.692ZM324.326 78.1523V67.6523H326.066V78.1523H324.326ZM242.335 94.3323C241.325 94.3323 240.425 94.1023 239.635 93.6423C238.855 93.1723 238.24 92.5323 237.79 91.7223C237.35 90.9023 237.13 89.9623 237.13 88.9023C237.13 87.8423 237.35 86.9073 237.79 86.0973C238.24 85.2773 238.855 84.6373 239.635 84.1773C240.415 83.7073 241.31 83.4723 242.32 83.4723C243 83.4723 243.64 83.5973 244.24 83.8473C244.84 84.0873 245.37 84.4223 245.83 84.8523C246.3 85.2823 246.66 85.7823 246.91 86.3523L245.32 86.9973C245.14 86.6173 244.895 86.2823 244.585 85.9923C244.285 85.6923 243.94 85.4623 243.55 85.3023C243.16 85.1423 242.75 85.0623 242.32 85.0623C241.66 85.0623 241.07 85.2273 240.55 85.5573C240.04 85.8873 239.635 86.3423 239.335 86.9223C239.045 87.4923 238.9 88.1523 238.9 88.9023C238.9 89.6523 239.045 90.3173 239.335 90.8973C239.635 91.4773 240.045 91.9323 240.565 92.2623C241.095 92.5923 241.695 92.7573 242.365 92.7573C242.805 92.7573 243.215 92.6723 243.595 92.5023C243.985 92.3223 244.33 92.0773 244.63 91.7673C244.94 91.4573 245.185 91.0973 245.365 90.6873L246.955 91.3323C246.705 91.9223 246.35 92.4473 245.89 92.9073C245.43 93.3573 244.895 93.7073 244.285 93.9573C243.675 94.2073 243.025 94.3323 242.335 94.3323ZM251.765 94.3323C251.015 94.3323 250.345 94.1673 249.755 93.8373C249.175 93.4973 248.72 93.0323 248.39 92.4423C248.06 91.8523 247.895 91.1723 247.895 90.4023C247.895 89.6323 248.055 88.9523 248.375 88.3623C248.705 87.7723 249.16 87.3123 249.74 86.9823C250.32 86.6423 250.985 86.4723 251.735 86.4723C252.485 86.4723 253.15 86.6423 253.73 86.9823C254.31 87.3123 254.76 87.7723 255.08 88.3623C255.41 88.9523 255.575 89.6323 255.575 90.4023C255.575 91.1723 255.415 91.8523 255.095 92.4423C254.775 93.0323 254.325 93.4973 253.745 93.8373C253.165 94.1673 252.505 94.3323 251.765 94.3323ZM251.765 92.7873C252.175 92.7873 252.54 92.6873 252.86 92.4873C253.18 92.2773 253.43 91.9973 253.61 91.6473C253.79 91.2873 253.88 90.8723 253.88 90.4023C253.88 89.9323 253.785 89.5223 253.595 89.1723C253.415 88.8123 253.165 88.5323 252.845 88.3323C252.525 88.1223 252.155 88.0173 251.735 88.0173C251.315 88.0173 250.945 88.1173 250.625 88.3173C250.305 88.5173 250.055 88.7973 249.875 89.1573C249.695 89.5173 249.605 89.9323 249.605 90.4023C249.605 90.8723 249.695 91.2873 249.875 91.6473C250.065 91.9973 250.32 92.2773 250.64 92.4873C250.97 92.6873 251.345 92.7873 251.765 92.7873ZM257.031 94.1523V86.6523H258.606L258.711 88.0323V94.1523H257.031ZM262.116 94.1523V90.3123H263.796V94.1523H262.116ZM262.116 90.3123C262.116 89.7123 262.046 89.2523 261.906 88.9323C261.776 88.6023 261.586 88.3723 261.336 88.2423C261.096 88.1123 260.811 88.0473 260.481 88.0473C259.921 88.0373 259.486 88.2223 259.176 88.6023C258.866 88.9823 258.711 89.5273 258.711 90.2373H258.081C258.081 89.4473 258.196 88.7723 258.426 88.2123C258.656 87.6423 258.986 87.2123 259.416 86.9223C259.846 86.6223 260.356 86.4723 260.946 86.4723C261.546 86.4723 262.056 86.5923 262.476 86.8323C262.906 87.0723 263.231 87.4473 263.451 87.9573C263.681 88.4573 263.796 89.1123 263.796 89.9223V90.3123H262.116ZM267.737 94.1523L270.662 86.6523H272.402L269.312 94.1523H267.737ZM267.617 94.1523L264.512 86.6523H266.237L269.177 94.1523H267.617ZM276.592 94.3323C275.862 94.3323 275.212 94.1673 274.642 93.8373C274.082 93.4973 273.637 93.0323 273.307 92.4423C272.987 91.8523 272.827 91.1723 272.827 90.4023C272.827 89.6323 272.992 88.9523 273.322 88.3623C273.652 87.7723 274.102 87.3123 274.672 86.9823C275.252 86.6423 275.912 86.4723 276.652 86.4723C277.322 86.4723 277.927 86.6473 278.467 86.9973C279.007 87.3373 279.432 87.8323 279.742 88.4823C280.062 89.1323 280.222 89.9073 280.222 90.8073H274.327L274.552 90.5973C274.552 91.0573 274.652 91.4573 274.852 91.7973C275.052 92.1273 275.317 92.3823 275.647 92.5623C275.977 92.7423 276.342 92.8323 276.742 92.8323C277.202 92.8323 277.582 92.7323 277.882 92.5323C278.182 92.3223 278.417 92.0523 278.587 91.7223L280.072 92.3523C279.862 92.7523 279.592 93.1023 279.262 93.4023C278.942 93.7023 278.557 93.9323 278.107 94.0923C277.667 94.2523 277.162 94.3323 276.592 94.3323ZM274.657 89.7273L274.417 89.5173H278.647L278.422 89.7273C278.422 89.3173 278.332 88.9823 278.152 88.7223C277.972 88.4523 277.742 88.2523 277.462 88.1223C277.192 87.9823 276.907 87.9123 276.607 87.9123C276.307 87.9123 276.007 87.9823 275.707 88.1223C275.407 88.2523 275.157 88.4523 274.957 88.7223C274.757 88.9823 274.657 89.3173 274.657 89.7273ZM282.618 90.1623C282.618 89.3523 282.773 88.6873 283.083 88.1673C283.393 87.6473 283.793 87.2623 284.283 87.0123C284.783 86.7523 285.303 86.6223 285.843 86.6223V88.2273C285.383 88.2273 284.948 88.2923 284.538 88.4223C284.138 88.5423 283.813 88.7423 283.563 89.0223C283.313 89.3023 283.188 89.6723 283.188 90.1323L282.618 90.1623ZM281.508 94.1523V86.6523H283.188V94.1523H281.508ZM289.687 94.3323C289.187 94.3323 288.727 94.2573 288.307 94.1073C287.887 93.9573 287.527 93.7473 287.227 93.4773C286.927 93.1973 286.697 92.8723 286.537 92.5023L287.992 91.8573C288.142 92.1373 288.362 92.3723 288.652 92.5623C288.952 92.7523 289.282 92.8473 289.642 92.8473C290.032 92.8473 290.342 92.7823 290.572 92.6523C290.812 92.5123 290.932 92.3223 290.932 92.0823C290.932 91.8523 290.842 91.6773 290.662 91.5573C290.482 91.4273 290.227 91.3223 289.897 91.2423L289.192 91.0473C288.482 90.8673 287.927 90.5823 287.527 90.1923C287.127 89.7923 286.927 89.3373 286.927 88.8273C286.927 88.0773 287.167 87.4973 287.647 87.0873C288.137 86.6773 288.837 86.4723 289.747 86.4723C290.207 86.4723 290.627 86.5423 291.007 86.6823C291.397 86.8123 291.732 87.0023 292.012 87.2523C292.292 87.4923 292.487 87.7773 292.597 88.1073L291.202 88.7373C291.102 88.4873 290.912 88.2973 290.632 88.1673C290.352 88.0273 290.042 87.9573 289.702 87.9573C289.362 87.9573 289.097 88.0323 288.907 88.1823C288.717 88.3223 288.622 88.5223 288.622 88.7823C288.622 88.9323 288.707 89.0723 288.877 89.2023C289.047 89.3223 289.292 89.4223 289.612 89.5023L290.497 89.7123C290.987 89.8323 291.387 90.0223 291.697 90.2823C292.007 90.5323 292.237 90.8173 292.387 91.1373C292.537 91.4473 292.612 91.7623 292.612 92.0823C292.612 92.5323 292.482 92.9273 292.222 93.2673C291.972 93.6073 291.627 93.8723 291.187 94.0623C290.747 94.2423 290.247 94.3323 289.687 94.3323ZM298.52 94.1523L298.445 92.7423V90.2973C298.445 89.7873 298.39 89.3623 298.28 89.0223C298.18 88.6723 298.01 88.4073 297.77 88.2273C297.54 88.0373 297.23 87.9423 296.84 87.9423C296.48 87.9423 296.165 88.0173 295.895 88.1673C295.625 88.3173 295.395 88.5523 295.205 88.8723L293.735 88.3323C293.895 88.0023 294.105 87.6973 294.365 87.4173C294.635 87.1273 294.97 86.8973 295.37 86.7273C295.78 86.5573 296.27 86.4723 296.84 86.4723C297.57 86.4723 298.18 86.6173 298.67 86.9073C299.16 87.1873 299.52 87.5923 299.75 88.1223C299.99 88.6523 300.11 89.2923 300.11 90.0423L300.065 94.1523H298.52ZM296.36 94.3323C295.46 94.3323 294.76 94.1323 294.26 93.7323C293.77 93.3323 293.525 92.7673 293.525 92.0373C293.525 91.2573 293.785 90.6623 294.305 90.2523C294.835 89.8423 295.57 89.6373 296.51 89.6373H298.52V90.9273H297.05C296.38 90.9273 295.91 91.0223 295.64 91.2123C295.37 91.3923 295.235 91.6523 295.235 91.9923C295.235 92.2823 295.35 92.5123 295.58 92.6823C295.82 92.8423 296.15 92.9223 296.57 92.9223C296.95 92.9223 297.28 92.8373 297.56 92.6673C297.84 92.4973 298.055 92.2723 298.205 91.9923C298.365 91.7123 298.445 91.3973 298.445 91.0473H298.94C298.94 92.0673 298.735 92.8723 298.325 93.4623C297.915 94.0423 297.26 94.3323 296.36 94.3323ZM304.796 94.3323C304.006 94.3323 303.401 94.1373 302.981 93.7473C302.571 93.3473 302.366 92.7773 302.366 92.0373V84.3123H304.031V91.7223C304.031 92.0723 304.111 92.3373 304.271 92.5173C304.441 92.6973 304.686 92.7873 305.006 92.7873C305.106 92.7873 305.216 92.7673 305.336 92.7273C305.456 92.6873 305.591 92.6123 305.741 92.5023L306.356 93.7773C306.096 93.9573 305.836 94.0923 305.576 94.1823C305.316 94.2823 305.056 94.3323 304.796 94.3323ZM301.121 88.0923V86.6523H306.056V88.0923H301.121ZM307.805 94.1523V86.6523H309.47V94.1523H307.805ZM308.645 85.2273C308.375 85.2273 308.14 85.1323 307.94 84.9423C307.75 84.7423 307.655 84.5073 307.655 84.2373C307.655 83.9673 307.75 83.7373 307.94 83.5473C308.14 83.3573 308.375 83.2623 308.645 83.2623C308.915 83.2623 309.145 83.3573 309.335 83.5473C309.535 83.7373 309.635 83.9673 309.635 84.2373C309.635 84.5073 309.535 84.7423 309.335 84.9423C309.145 85.1323 308.915 85.2273 308.645 85.2273ZM314.9 94.3323C314.15 94.3323 313.48 94.1673 312.89 93.8373C312.31 93.4973 311.855 93.0323 311.525 92.4423C311.195 91.8523 311.03 91.1723 311.03 90.4023C311.03 89.6323 311.19 88.9523 311.51 88.3623C311.84 87.7723 312.295 87.3123 312.875 86.9823C313.455 86.6423 314.12 86.4723 314.87 86.4723C315.62 86.4723 316.285 86.6423 316.865 86.9823C317.445 87.3123 317.895 87.7723 318.215 88.3623C318.545 88.9523 318.71 89.6323 318.71 90.4023C318.71 91.1723 318.55 91.8523 318.23 92.4423C317.91 93.0323 317.46 93.4973 316.88 93.8373C316.3 94.1673 315.64 94.3323 314.9 94.3323ZM314.9 92.7873C315.31 92.7873 315.675 92.6873 315.995 92.4873C316.315 92.2773 316.565 91.9973 316.745 91.6473C316.925 91.2873 317.015 90.8723 317.015 90.4023C317.015 89.9323 316.92 89.5223 316.73 89.1723C316.55 88.8123 316.3 88.5323 315.98 88.3323C315.66 88.1223 315.29 88.0173 314.87 88.0173C314.45 88.0173 314.08 88.1173 313.76 88.3173C313.44 88.5173 313.19 88.7973 313.01 89.1573C312.83 89.5173 312.74 89.9323 312.74 90.4023C312.74 90.8723 312.83 91.2873 313.01 91.6473C313.2 91.9973 313.455 92.2773 313.775 92.4873C314.105 92.6873 314.48 92.7873 314.9 92.7873ZM320.165 94.1523V86.6523H321.74L321.845 88.0323V94.1523H320.165ZM325.25 94.1523V90.3123H326.93V94.1523H325.25ZM325.25 90.3123C325.25 89.7123 325.18 89.2523 325.04 88.9323C324.91 88.6023 324.72 88.3723 324.47 88.2423C324.23 88.1123 323.945 88.0473 323.615 88.0473C323.055 88.0373 322.62 88.2223 322.31 88.6023C322 88.9823 321.845 89.5273 321.845 90.2373H321.215C321.215 89.4473 321.33 88.7723 321.56 88.2123C321.79 87.6423 322.12 87.2123 322.55 86.9223C322.98 86.6223 323.49 86.4723 324.08 86.4723C324.68 86.4723 325.19 86.5923 325.61 86.8323C326.04 87.0723 326.365 87.4473 326.585 87.9573C326.815 88.4573 326.93 89.1123 326.93 89.9223V90.3123H325.25ZM331.362 94.3323C330.862 94.3323 330.402 94.2573 329.982 94.1073C329.562 93.9573 329.202 93.7473 328.902 93.4773C328.602 93.1973 328.372 92.8723 328.212 92.5023L329.667 91.8573C329.817 92.1373 330.037 92.3723 330.327 92.5623C330.627 92.7523 330.957 92.8473 331.317 92.8473C331.707 92.8473 332.017 92.7823 332.247 92.6523C332.487 92.5123 332.607 92.3223 332.607 92.0823C332.607 91.8523 332.517 91.6773 332.337 91.5573C332.157 91.4273 331.902 91.3223 331.572 91.2423L330.867 91.0473C330.157 90.8673 329.602 90.5823 329.202 90.1923C328.802 89.7923 328.602 89.3373 328.602 88.8273C328.602 88.0773 328.842 87.4973 329.322 87.0873C329.812 86.6773 330.512 86.4723 331.422 86.4723C331.882 86.4723 332.302 86.5423 332.682 86.6823C333.072 86.8123 333.407 87.0023 333.687 87.2523C333.967 87.4923 334.162 87.7773 334.272 88.1073L332.877 88.7373C332.777 88.4873 332.587 88.2973 332.307 88.1673C332.027 88.0273 331.717 87.9573 331.377 87.9573C331.037 87.9573 330.772 88.0323 330.582 88.1823C330.392 88.3223 330.297 88.5223 330.297 88.7823C330.297 88.9323 330.382 89.0723 330.552 89.2023C330.722 89.3223 330.967 89.4223 331.287 89.5023L332.172 89.7123C332.662 89.8323 333.062 90.0223 333.372 90.2823C333.682 90.5323 333.912 90.8173 334.062 91.1373C334.212 91.4473 334.287 91.7623 334.287 92.0823C334.287 92.5323 334.157 92.9273 333.897 93.2673C333.647 93.6073 333.302 93.8723 332.862 94.0623C332.422 94.2423 331.922 94.3323 331.362 94.3323Z" fill="white"/>
<path d="M304.838 57.4225L298.396 50.981H278.428C277.542 50.981 276.784 50.6656 276.153 50.0347C275.523 49.4043 275.207 48.6461 275.207 47.7602V47.2772H297.752C298.682 47.2772 299.478 46.9461 300.141 46.2838C300.803 45.6216 301.134 44.8256 301.134 43.8957V29.5635H301.617C302.502 29.5635 303.261 29.8789 303.891 30.5098C304.522 31.1402 304.838 31.8984 304.838 32.7843V57.4225ZM270.859 44.4631L274.326 40.9968H293.565C293.941 40.9968 294.249 40.8761 294.491 40.6347C294.733 40.3932 294.854 40.0846 294.854 39.7089V26.6652C294.854 26.2894 294.733 25.9806 294.491 25.7388C294.249 25.4974 293.941 25.3766 293.565 25.3766H272.148C271.772 25.3766 271.463 25.4974 271.222 25.7388C270.98 25.9806 270.859 26.2894 270.859 26.6652V44.4631ZM268.766 49.5318V26.6652C268.766 25.735 269.097 24.9388 269.759 24.2765C270.422 23.6143 271.218 23.2832 272.148 23.2832H293.565C294.495 23.2832 295.291 23.6143 295.954 24.2765C296.616 24.9388 296.947 25.735 296.947 26.6652V39.7089C296.947 40.6387 296.616 41.4347 295.954 42.0969C295.291 42.7592 294.495 43.0903 293.565 43.0903H275.207L268.766 49.5318Z" fill="white"/>
<path d="M461.739 140.033C463.434 140.033 464.947 139.512 466.279 138.468C467.611 137.425 468.588 136.127 469.209 134.573H454.292C454.914 136.127 455.887 137.425 457.21 138.468C458.535 139.512 460.044 140.033 461.739 140.033ZM456.439 130.977C457.183 130.977 457.811 130.716 458.321 130.195C458.832 129.674 459.087 129.041 459.087 128.297C459.087 127.553 458.826 126.925 458.305 126.415C457.784 125.904 457.152 125.649 456.407 125.649C455.663 125.649 455.036 125.91 454.525 126.431C454.015 126.952 453.76 127.584 453.76 128.329C453.76 129.073 454.02 129.7 454.541 130.211C455.062 130.721 455.695 130.977 456.439 130.977ZM467.094 130.977C467.838 130.977 468.466 130.716 468.976 130.195C469.487 129.674 469.742 129.041 469.742 128.297C469.742 127.553 469.481 126.925 468.96 126.415C468.439 125.904 467.807 125.649 467.062 125.649C466.318 125.649 465.691 125.91 465.18 126.431C464.67 126.952 464.415 127.584 464.415 128.329C464.415 129.073 464.675 129.7 465.196 130.211C465.717 130.721 466.35 130.977 467.094 130.977ZM451.828 118.723L458.621 109.6C459.012 109.073 459.476 108.686 460.013 108.439C460.55 108.192 461.129 108.068 461.751 108.068C462.372 108.068 462.952 108.192 463.489 108.439C464.026 108.686 464.49 109.073 464.881 109.6L471.673 118.723L482.195 122.319C483.083 122.63 483.76 123.133 484.226 123.828C484.692 124.524 484.925 125.292 484.925 126.133C484.925 126.521 484.868 126.905 484.754 127.285C484.641 127.666 484.454 128.031 484.193 128.379L477.267 137.636L477.534 147.625C477.578 148.786 477.193 149.764 476.378 150.56C475.563 151.356 474.617 151.754 473.538 151.754C473.582 151.754 473.205 151.709 472.406 151.621L461.751 148.424L451.096 151.621C450.874 151.709 450.669 151.754 450.48 151.754H449.964C448.854 151.754 447.899 151.356 447.1 150.56C446.301 149.764 445.924 148.786 445.968 147.625L446.234 137.569L439.309 128.379C439.048 128.026 438.861 127.657 438.747 127.271C438.633 126.886 438.576 126.501 438.576 126.115C438.576 125.279 438.822 124.502 439.313 123.782C439.805 123.064 440.492 122.554 441.373 122.253L451.828 118.723ZM453.027 120.322L442.039 124.051C441.373 124.273 440.918 124.728 440.674 125.416C440.43 126.104 440.53 126.737 440.974 127.314L448.166 137.037L447.833 147.625C447.788 148.38 448.055 148.979 448.632 149.423C449.209 149.867 449.853 149.978 450.563 149.756L461.751 146.493L472.939 149.823C473.649 150.045 474.293 149.934 474.87 149.49C475.447 149.046 475.713 148.446 475.669 147.692L475.336 137.037L482.528 127.447C482.972 126.87 483.072 126.237 482.828 125.549C482.584 124.861 482.128 124.406 481.463 124.184L470.475 120.322L463.416 110.865C463.016 110.288 462.461 110 461.751 110C461.04 110 460.486 110.288 460.086 110.865L453.027 120.322Z" fill="white"/>
<g clip-path="url(#clip0_5073_709)">
<path d="M497.094 330.823L497.041 330.614L497.022 330.585C495.521 328.189 494.577 325.56 494.216 322.772C493.87 320.096 494.075 317.413 494.826 314.795C495.58 312.164 496.837 309.77 498.56 307.679C500.351 305.505 502.548 303.785 505.09 302.565C507.72 301.304 510.503 300.664 513.362 300.664C515.809 300.664 518.217 301.132 520.519 302.056C522.785 302.965 524.841 304.27 526.628 305.935C530.388 309.438 532.568 314.209 532.766 319.368C532.973 324.77 531.071 329.859 527.41 333.697C525.604 335.591 523.474 337.082 521.081 338.127C518.64 339.193 516.063 339.733 513.42 339.733C510.839 339.733 508.287 339.212 505.834 338.183C505.764 338.154 505.642 338.093 505.513 338.029C505.028 337.79 504.696 337.632 504.503 337.632C504.495 337.632 504.488 337.632 504.48 337.633L504.457 337.635L494.414 340.439L497.093 330.823H497.094ZM497.886 337.124L505.121 334.825C507.641 336.273 510.49 337.038 513.367 337.038C515.029 337.038 516.682 336.788 518.279 336.296C519.87 335.805 521.375 335.084 522.751 334.152C525.63 332.202 527.801 329.435 529.028 326.15C530.024 323.482 530.336 320.72 529.953 317.94C529.595 315.338 528.612 312.807 527.112 310.619C525.615 308.437 523.619 306.621 521.34 305.368C518.912 304.032 516.262 303.355 513.464 303.355C513.3 303.355 513.133 303.358 512.968 303.363C511.414 303.408 509.89 303.662 508.439 304.117C507.047 304.553 505.717 305.176 504.487 305.969C502.114 307.497 500.137 309.641 498.77 312.169C497.409 314.685 496.696 317.506 496.706 320.325C496.711 321.79 496.911 323.249 497.301 324.662C497.707 326.135 498.32 327.563 499.125 328.907C499.267 329.144 499.422 329.375 499.573 329.599C499.696 329.78 499.822 329.967 499.937 330.153L497.886 337.123L497.886 337.124Z" fill="#FDFEFD"/>
<path d="M518.384 329.604C516.806 329.604 515.193 328.979 513.823 328.367C510.562 326.912 507.59 324.257 504.989 320.478C504.062 319.131 503.517 317.698 503.411 316.335C503.292 314.785 503.741 313.418 504.747 312.27C504.952 312.035 505.554 311.469 505.687 311.412C505.723 311.398 505.86 311.369 506.358 311.346L506.371 311.346C506.483 311.34 506.597 311.338 506.709 311.338C506.94 311.338 507.159 311.349 507.344 311.371C507.533 311.393 507.676 311.491 507.775 311.665C507.79 311.692 507.807 311.721 507.825 311.752C508.523 312.962 509.161 314.726 509.403 315.429C509.415 315.464 509.433 315.512 509.453 315.566C509.501 315.699 509.63 316.053 509.634 316.14C509.635 316.272 509.358 316.864 509.187 317.124C509.137 317.2 508.939 317.45 508.748 317.692C508.002 318.636 507.975 318.692 507.972 318.803L507.971 318.848L507.987 318.89C508.79 320.935 510.419 322.786 512.698 324.245C513.492 324.753 514.185 325.114 514.76 325.318C515.141 325.453 515.397 325.511 515.615 325.511C516.143 325.511 516.392 325.169 516.804 324.604L516.841 324.554C516.977 324.367 517.109 324.153 517.236 323.946C517.422 323.645 517.615 323.333 517.817 323.111C517.979 322.933 518.04 322.904 518.155 322.904C518.198 322.904 518.25 322.909 518.313 322.919C519.09 323.047 521.065 324.041 521.846 324.475C522.652 324.922 522.8 325.092 522.826 325.131C522.961 325.677 522.721 327.087 522.464 327.574C522.381 327.732 521.932 328.18 521.682 328.393C520.723 329.208 519.644 329.604 518.384 329.604V329.604Z" fill="#FDFEFD"/>
</g>
<path d="M382.262 562.233C419.838 562.233 450.285 531.623 450.266 493.863C450.248 456.104 419.773 425.494 382.197 425.494C344.621 425.494 314.175 456.104 314.193 493.863C314.211 531.623 344.687 562.233 382.262 562.233Z" fill="#F97D88"/>
<path d="M373.843 514.072L369.748 503.572H371.488L375.688 514.072H373.843ZM365.458 514.072L369.643 503.572H371.398L367.303 514.072H365.458ZM367.423 511.492V509.947H373.708V511.492H367.423ZM381.767 514.072L381.677 512.692V506.572H383.342V514.072H381.767ZM376.577 510.412V506.572H378.257V510.412H376.577ZM378.257 510.412C378.257 511.002 378.327 511.462 378.467 511.792C378.607 512.122 378.797 512.352 379.037 512.482C379.287 512.612 379.572 512.677 379.892 512.677C380.462 512.687 380.902 512.502 381.212 512.122C381.522 511.742 381.677 511.197 381.677 510.487H382.307C382.307 511.277 382.187 511.957 381.947 512.527C381.717 513.087 381.387 513.517 380.957 513.817C380.537 514.107 380.027 514.252 379.427 514.252C378.837 514.252 378.327 514.132 377.897 513.892C377.477 513.652 377.152 513.277 376.922 512.767C376.692 512.257 376.577 511.602 376.577 510.802V510.412H378.257ZM388.193 514.252C387.403 514.252 386.798 514.057 386.378 513.667C385.968 513.267 385.763 512.697 385.763 511.957V504.232H387.428V511.642C387.428 511.992 387.508 512.257 387.668 512.437C387.838 512.617 388.083 512.707 388.403 512.707C388.503 512.707 388.613 512.687 388.733 512.647C388.853 512.607 388.988 512.532 389.138 512.422L389.753 513.697C389.493 513.877 389.233 514.012 388.973 514.102C388.713 514.202 388.453 514.252 388.193 514.252ZM384.518 508.012V506.572H389.453V508.012H384.518ZM394.445 514.252C393.695 514.252 393.025 514.087 392.435 513.757C391.855 513.417 391.4 512.952 391.07 512.362C390.74 511.772 390.575 511.092 390.575 510.322C390.575 509.552 390.735 508.872 391.055 508.282C391.385 507.692 391.84 507.232 392.42 506.902C393 506.562 393.665 506.392 394.415 506.392C395.165 506.392 395.83 506.562 396.41 506.902C396.99 507.232 397.44 507.692 397.76 508.282C398.09 508.872 398.255 509.552 398.255 510.322C398.255 511.092 398.095 511.772 397.775 512.362C397.455 512.952 397.005 513.417 396.425 513.757C395.845 514.087 395.185 514.252 394.445 514.252ZM394.445 512.707C394.855 512.707 395.22 512.607 395.54 512.407C395.86 512.197 396.11 511.917 396.29 511.567C396.47 511.207 396.56 510.792 396.56 510.322C396.56 509.852 396.465 509.442 396.275 509.092C396.095 508.732 395.845 508.452 395.525 508.252C395.205 508.042 394.835 507.937 394.415 507.937C393.995 507.937 393.625 508.037 393.305 508.237C392.985 508.437 392.735 508.717 392.555 509.077C392.375 509.437 392.285 509.852 392.285 510.322C392.285 510.792 392.375 511.207 392.555 511.567C392.745 511.917 393 512.197 393.32 512.407C393.65 512.607 394.025 512.707 394.445 512.707ZM352.411 530.072V519.572H356.116C356.836 519.572 357.471 519.712 358.021 519.992C358.571 520.272 359.001 520.662 359.311 521.162C359.621 521.652 359.776 522.222 359.776 522.872C359.776 523.522 359.611 524.097 359.281 524.597C358.961 525.097 358.516 525.492 357.946 525.782C357.376 526.062 356.731 526.202 356.011 526.202H354.151V530.072H352.411ZM358.231 530.072L355.771 525.812L357.121 524.882L360.196 530.072H358.231ZM354.151 524.597H356.191C356.531 524.597 356.831 524.522 357.091 524.372C357.361 524.222 357.576 524.017 357.736 523.757C357.906 523.497 357.991 523.202 357.991 522.872C357.991 522.372 357.811 521.962 357.451 521.642C357.091 521.322 356.626 521.162 356.056 521.162H354.151V524.597ZM366.221 530.072L366.146 528.662V526.217C366.146 525.707 366.091 525.282 365.981 524.942C365.881 524.592 365.711 524.327 365.471 524.147C365.241 523.957 364.931 523.862 364.541 523.862C364.181 523.862 363.866 523.937 363.596 524.087C363.326 524.237 363.096 524.472 362.906 524.792L361.436 524.252C361.596 523.922 361.806 523.617 362.066 523.337C362.336 523.047 362.671 522.817 363.071 522.647C363.481 522.477 363.971 522.392 364.541 522.392C365.271 522.392 365.881 522.537 366.371 522.827C366.861 523.107 367.221 523.512 367.451 524.042C367.691 524.572 367.811 525.212 367.811 525.962L367.766 530.072H366.221ZM364.061 530.252C363.161 530.252 362.461 530.052 361.961 529.652C361.471 529.252 361.226 528.687 361.226 527.957C361.226 527.177 361.486 526.582 362.006 526.172C362.536 525.762 363.271 525.557 364.211 525.557H366.221V526.847H364.751C364.081 526.847 363.611 526.942 363.341 527.132C363.071 527.312 362.936 527.572 362.936 527.912C362.936 528.202 363.051 528.432 363.281 528.602C363.521 528.762 363.851 528.842 364.271 528.842C364.651 528.842 364.981 528.757 365.261 528.587C365.541 528.417 365.756 528.192 365.906 527.912C366.066 527.632 366.146 527.317 366.146 526.967H366.641C366.641 527.987 366.436 528.792 366.026 529.382C365.616 529.962 364.961 530.252 364.061 530.252ZM369.513 530.072V522.572H371.088L371.193 523.952V530.072H369.513ZM374.598 530.072V526.232H376.278V530.072H374.598ZM374.598 526.232C374.598 525.632 374.528 525.172 374.388 524.852C374.258 524.522 374.068 524.292 373.818 524.162C373.578 524.032 373.293 523.967 372.963 523.967C372.403 523.957 371.968 524.142 371.658 524.522C371.348 524.902 371.193 525.447 371.193 526.157H370.563C370.563 525.367 370.678 524.692 370.908 524.132C371.138 523.562 371.468 523.132 371.898 522.842C372.328 522.542 372.838 522.392 373.428 522.392C374.028 522.392 374.538 522.512 374.958 522.752C375.388 522.992 375.713 523.367 375.933 523.877C376.163 524.377 376.278 525.032 376.278 525.842V526.232H374.598ZM379.584 527.972L378.564 526.817L382.464 522.572H384.489L379.584 527.972ZM377.979 530.072V519.572H379.659V530.072H377.979ZM382.749 530.072L380.109 526.187L381.204 525.017L384.744 530.072H382.749ZM385.833 530.072V522.572H387.498V530.072H385.833ZM386.673 521.147C386.403 521.147 386.168 521.052 385.968 520.862C385.778 520.662 385.683 520.427 385.683 520.157C385.683 519.887 385.778 519.657 385.968 519.467C386.168 519.277 386.403 519.182 386.673 519.182C386.943 519.182 387.173 519.277 387.363 519.467C387.563 519.657 387.663 519.887 387.663 520.157C387.663 520.427 387.563 520.662 387.363 520.862C387.173 521.052 386.943 521.147 386.673 521.147ZM389.478 530.072V522.572H391.053L391.158 523.952V530.072H389.478ZM394.563 530.072V526.232H396.243V530.072H394.563ZM394.563 526.232C394.563 525.632 394.493 525.172 394.353 524.852C394.223 524.522 394.033 524.292 393.783 524.162C393.543 524.032 393.258 523.967 392.928 523.967C392.368 523.957 391.933 524.142 391.623 524.522C391.313 524.902 391.158 525.447 391.158 526.157H390.528C390.528 525.367 390.643 524.692 390.873 524.132C391.103 523.562 391.433 523.132 391.863 522.842C392.293 522.542 392.803 522.392 393.393 522.392C393.993 522.392 394.503 522.512 394.923 522.752C395.353 522.992 395.678 523.367 395.898 523.877C396.128 524.377 396.243 525.032 396.243 525.842V526.232H394.563ZM401.17 533.267C400.64 533.267 400.16 533.222 399.73 533.132C399.31 533.042 398.955 532.937 398.665 532.817C398.375 532.697 398.15 532.582 397.99 532.472L398.635 531.122C398.775 531.192 398.96 531.277 399.19 531.377C399.43 531.487 399.71 531.582 400.03 531.662C400.35 531.742 400.71 531.782 401.11 531.782C401.54 531.782 401.925 531.692 402.265 531.512C402.605 531.342 402.87 531.077 403.06 530.717C403.25 530.357 403.345 529.897 403.345 529.337V522.572H405.025V529.292C405.025 530.142 404.865 530.862 404.545 531.452C404.225 532.052 403.775 532.502 403.195 532.802C402.615 533.112 401.94 533.267 401.17 533.267ZM400.915 529.922C400.235 529.922 399.64 529.767 399.13 529.457C398.63 529.147 398.235 528.717 397.945 528.167C397.665 527.607 397.525 526.962 397.525 526.232C397.525 525.452 397.665 524.777 397.945 524.207C398.235 523.637 398.63 523.192 399.13 522.872C399.64 522.552 400.235 522.392 400.915 522.392C401.525 522.392 402.055 522.552 402.505 522.872C402.965 523.192 403.32 523.642 403.57 524.222C403.82 524.792 403.945 525.467 403.945 526.247C403.945 526.987 403.82 527.632 403.57 528.182C403.32 528.732 402.965 529.162 402.505 529.472C402.055 529.772 401.525 529.922 400.915 529.922ZM401.38 528.497C401.76 528.497 402.09 528.397 402.37 528.197C402.66 527.997 402.885 527.727 403.045 527.387C403.205 527.037 403.285 526.637 403.285 526.187C403.285 525.727 403.205 525.327 403.045 524.987C402.885 524.637 402.66 524.367 402.37 524.177C402.08 523.977 401.745 523.877 401.365 523.877C400.965 523.877 400.61 523.977 400.3 524.177C400 524.367 399.76 524.637 399.58 524.987C399.41 525.327 399.325 525.727 399.325 526.187C399.325 526.637 399.41 527.037 399.58 527.387C399.76 527.727 400.005 527.997 400.315 528.197C400.625 528.397 400.98 528.497 401.38 528.497ZM409.611 530.252C409.111 530.252 408.651 530.177 408.231 530.027C407.811 529.877 407.451 529.667 407.151 529.397C406.851 529.117 406.621 528.792 406.461 528.422L407.916 527.777C408.066 528.057 408.286 528.292 408.576 528.482C408.876 528.672 409.206 528.767 409.566 528.767C409.956 528.767 410.266 528.702 410.496 528.572C410.736 528.432 410.856 528.242 410.856 528.002C410.856 527.772 410.766 527.597 410.586 527.477C410.406 527.347 410.151 527.242 409.821 527.162L409.116 526.967C408.406 526.787 407.851 526.502 407.451 526.112C407.051 525.712 406.851 525.257 406.851 524.747C406.851 523.997 407.091 523.417 407.571 523.007C408.061 522.597 408.761 522.392 409.671 522.392C410.131 522.392 410.551 522.462 410.931 522.602C411.321 522.732 411.656 522.922 411.936 523.172C412.216 523.412 412.411 523.697 412.521 524.027L411.126 524.657C411.026 524.407 410.836 524.217 410.556 524.087C410.276 523.947 409.966 523.877 409.626 523.877C409.286 523.877 409.021 523.952 408.831 524.102C408.641 524.242 408.546 524.442 408.546 524.702C408.546 524.852 408.631 524.992 408.801 525.122C408.971 525.242 409.216 525.342 409.536 525.422L410.421 525.632C410.911 525.752 411.311 525.942 411.621 526.202C411.931 526.452 412.161 526.737 412.311 527.057C412.461 527.367 412.536 527.682 412.536 528.002C412.536 528.452 412.406 528.847 412.146 529.187C411.896 529.527 411.551 529.792 411.111 529.982C410.671 530.162 410.171 530.252 409.611 530.252Z" fill="white"/>
<g clip-path="url(#clip1_5073_709)">
<path d="M401.392 483.6L401.397 469.902C401.432 469.633 401.025 469.147 400.798 469.147H389.37V464.882C389.37 464.652 388.909 464.403 388.686 464.371C388.323 464.32 383.03 464.303 380.696 464.342C379.454 464.304 376.878 464.32 376.516 464.371C376.292 464.403 375.832 464.652 375.832 464.882V473.929H364.403C364.176 473.929 363.769 474.415 363.804 474.684L363.809 483.6C363.187 483.894 362.682 484.271 362.414 484.929C362.159 485.553 362.114 487.699 362.219 488.391C362.275 488.759 362.49 488.889 362.771 489.073H402.988V485.487C402.744 484.59 402.256 483.964 401.392 483.6ZM389.37 470.741H399.802V483.494H389.37V470.741ZM377.424 465.958H387.777V483.494H377.424V465.958ZM365.399 475.523H375.832V483.493H365.399V475.523ZM401.395 487.479H363.806V485.686C363.806 485.534 364.167 485.142 364.362 485.126H400.84C401.034 485.142 401.395 485.534 401.395 485.686V487.479Z" fill="white"/>
<path d="M378.049 456.768C378.015 458.092 377.127 459.994 378.387 460.97C379.795 462.059 381.207 460.569 382.567 460.14C383.956 460.582 385.82 462.287 387.093 460.69C387.888 459.693 387.189 458.015 387.152 456.849C387.983 455.652 390.011 454.647 389.225 452.911C388.609 451.552 386.616 451.827 385.409 451.43C384.613 450.236 384.187 448.021 382.329 448.269C380.895 448.461 380.53 450.4 379.811 451.407C378.609 451.833 376.516 451.557 375.952 452.965C375.265 454.681 377.154 455.641 378.05 456.767L378.049 456.768ZM377.431 453.53C377.518 453.402 380.064 453.061 380.469 452.944C380.981 452.796 381.095 452.409 381.341 451.982C381.71 451.34 382.021 450.64 382.371 449.985C382.459 449.816 382.672 449.799 382.8 449.936C383.249 450.714 383.628 451.626 384.101 452.381C384.385 452.834 384.458 452.878 384.987 453.008C385.355 453.098 387.69 453.412 387.771 453.529C387.887 453.697 387.57 454.055 387.456 454.197C387.024 454.74 385.647 455.806 385.519 456.41C385.399 456.976 385.822 458.459 385.865 459.141C385.876 459.336 385.874 459.536 385.858 459.73C385.782 459.759 385.706 459.793 385.621 459.777C384.945 459.65 383.739 458.794 382.975 458.528C382.613 458.402 382.51 458.4 382.148 458.528C381.241 458.848 380.334 459.662 379.342 459.733C379.159 459.611 379.779 456.774 379.635 456.211C379.509 455.717 377.856 454.506 377.501 453.883C377.433 453.764 377.388 453.667 377.431 453.527V453.53Z" fill="white"/>
</g>
<circle cx="110.953" cy="155.17" r="68.0368" fill="#F553C7"/>
<path d="M77.1079 184.143C76.5579 184.143 76.0529 184.078 75.5929 183.948C75.1429 183.818 74.7429 183.638 74.3929 183.408C74.0529 183.178 73.7679 182.923 73.5379 182.643C73.3179 182.353 73.1629 182.053 73.0729 181.743L74.7829 181.218C74.9129 181.588 75.1679 181.913 75.5479 182.193C75.9279 182.473 76.3979 182.618 76.9579 182.628C77.6079 182.628 78.1229 182.493 78.5029 182.223C78.8829 181.953 79.0729 181.598 79.0729 181.158C79.0729 180.758 78.9129 180.433 78.5929 180.183C78.2729 179.923 77.8429 179.723 77.3029 179.583L76.0129 179.253C75.5229 179.123 75.0779 178.933 74.6779 178.683C74.2879 178.433 73.9779 178.118 73.7479 177.738C73.5279 177.358 73.4179 176.908 73.4179 176.388C73.4179 175.408 73.7379 174.648 74.3779 174.108C75.0179 173.558 75.9329 173.283 77.1229 173.283C77.7929 173.283 78.3779 173.388 78.8779 173.598C79.3879 173.798 79.8079 174.078 80.1379 174.438C80.4679 174.788 80.7129 175.188 80.8729 175.638L79.1929 176.178C79.0429 175.778 78.7829 175.448 78.4129 175.188C78.0429 174.928 77.5829 174.798 77.0329 174.798C76.4629 174.798 76.0129 174.933 75.6829 175.203C75.3629 175.473 75.2029 175.848 75.2029 176.328C75.2029 176.718 75.3279 177.023 75.5779 177.243C75.8379 177.453 76.1879 177.613 76.6279 177.723L77.9179 178.038C78.8579 178.268 79.5879 178.663 80.1079 179.223C80.6279 179.783 80.8879 180.403 80.8879 181.083C80.8879 181.683 80.7429 182.213 80.4529 182.673C80.1629 183.133 79.7329 183.493 79.1629 183.753C78.6029 184.013 77.9179 184.143 77.1079 184.143ZM82.4982 183.963V176.463H84.0732L84.1482 177.468C84.3782 177.078 84.6732 176.783 85.0332 176.583C85.3932 176.383 85.8032 176.283 86.2632 176.283C86.8632 176.283 87.3732 176.418 87.7932 176.688C88.2132 176.958 88.5182 177.368 88.7082 177.918C88.9282 177.388 89.2382 176.983 89.6382 176.703C90.0382 176.423 90.5082 176.283 91.0482 176.283C91.9182 176.283 92.5882 176.563 93.0582 177.123C93.5282 177.673 93.7582 178.523 93.7482 179.673V183.963H92.0832V180.123C92.0832 179.523 92.0182 179.063 91.8882 178.743C91.7582 178.413 91.5832 178.183 91.3632 178.053C91.1432 177.923 90.8882 177.858 90.5982 177.858C90.0782 177.848 89.6732 178.033 89.3832 178.413C89.1032 178.793 88.9632 179.338 88.9632 180.048V183.963H87.2832V180.123C87.2832 179.523 87.2182 179.063 87.0882 178.743C86.9682 178.413 86.7982 178.183 86.5782 178.053C86.3582 177.923 86.1032 177.858 85.8132 177.858C85.2932 177.848 84.8882 178.033 84.5982 178.413C84.3182 178.793 84.1782 179.338 84.1782 180.048V183.963H82.4982ZM100.037 183.963L99.962 182.553V180.108C99.962 179.598 99.907 179.173 99.797 178.833C99.697 178.483 99.527 178.218 99.287 178.038C99.057 177.848 98.747 177.753 98.357 177.753C97.997 177.753 97.682 177.828 97.412 177.978C97.142 178.128 96.912 178.363 96.722 178.683L95.252 178.143C95.412 177.813 95.622 177.508 95.882 177.228C96.152 176.938 96.487 176.708 96.887 176.538C97.297 176.368 97.787 176.283 98.357 176.283C99.087 176.283 99.697 176.428 100.187 176.718C100.677 176.998 101.037 177.403 101.267 177.933C101.507 178.463 101.627 179.103 101.627 179.853L101.582 183.963H100.037ZM97.877 184.143C96.977 184.143 96.277 183.943 95.777 183.543C95.287 183.143 95.042 182.578 95.042 181.848C95.042 181.068 95.302 180.473 95.822 180.063C96.352 179.653 97.087 179.448 98.027 179.448H100.037V180.738H98.567C97.897 180.738 97.427 180.833 97.157 181.023C96.887 181.203 96.752 181.463 96.752 181.803C96.752 182.093 96.867 182.323 97.097 182.493C97.337 182.653 97.667 182.733 98.087 182.733C98.467 182.733 98.797 182.648 99.077 182.478C99.357 182.308 99.572 182.083 99.722 181.803C99.882 181.523 99.962 181.208 99.962 180.858H100.457C100.457 181.878 100.252 182.683 99.842 183.273C99.432 183.853 98.777 184.143 97.877 184.143ZM104.438 179.973C104.438 179.163 104.593 178.498 104.903 177.978C105.213 177.458 105.613 177.073 106.103 176.823C106.603 176.563 107.123 176.433 107.663 176.433V178.038C107.203 178.038 106.768 178.103 106.358 178.233C105.958 178.353 105.633 178.553 105.383 178.833C105.133 179.113 105.008 179.483 105.008 179.943L104.438 179.973ZM103.328 183.963V176.463H105.008V183.963H103.328ZM111.762 184.143C110.972 184.143 110.367 183.948 109.947 183.558C109.537 183.158 109.332 182.588 109.332 181.848V174.123H110.997V181.533C110.997 181.883 111.077 182.148 111.237 182.328C111.407 182.508 111.652 182.598 111.972 182.598C112.072 182.598 112.182 182.578 112.302 182.538C112.422 182.498 112.557 182.423 112.707 182.313L113.322 183.588C113.062 183.768 112.802 183.903 112.542 183.993C112.282 184.093 112.022 184.143 111.762 184.143ZM108.087 177.903V176.463H113.022V177.903H108.087ZM123.264 184.143C122.224 184.143 121.304 183.913 120.504 183.453C119.704 182.993 119.074 182.353 118.614 181.533C118.164 180.713 117.939 179.773 117.939 178.713C117.939 177.653 118.164 176.718 118.614 175.908C119.074 175.088 119.699 174.448 120.489 173.988C121.279 173.518 122.189 173.283 123.219 173.283C124.259 173.283 125.174 173.518 125.964 173.988C126.764 174.448 127.384 175.088 127.824 175.908C128.274 176.718 128.499 177.653 128.499 178.713C128.499 179.773 128.274 180.713 127.824 181.533C127.384 182.353 126.769 182.993 125.979 183.453C125.199 183.913 124.294 184.143 123.264 184.143ZM123.264 182.553C123.944 182.553 124.544 182.388 125.064 182.058C125.584 181.728 125.989 181.278 126.279 180.708C126.579 180.128 126.729 179.463 126.729 178.713C126.729 177.973 126.579 177.313 126.279 176.733C125.979 176.153 125.564 175.703 125.034 175.383C124.514 175.053 123.909 174.888 123.219 174.888C122.539 174.888 121.934 175.053 121.404 175.383C120.884 175.703 120.469 176.153 120.159 176.733C119.859 177.303 119.709 177.963 119.709 178.713C119.709 179.463 119.859 180.128 120.159 180.708C120.469 181.278 120.889 181.728 121.419 182.058C121.959 182.388 122.574 182.553 123.264 182.553ZM134.892 184.143C133.882 184.143 132.982 183.913 132.192 183.453C131.412 182.983 130.797 182.343 130.347 181.533C129.907 180.713 129.687 179.773 129.687 178.713C129.687 177.653 129.907 176.718 130.347 175.908C130.797 175.088 131.412 174.448 132.192 173.988C132.972 173.518 133.867 173.283 134.877 173.283C135.557 173.283 136.197 173.408 136.797 173.658C137.397 173.898 137.927 174.233 138.387 174.663C138.857 175.093 139.217 175.593 139.467 176.163L137.877 176.808C137.697 176.428 137.452 176.093 137.142 175.803C136.842 175.503 136.497 175.273 136.107 175.113C135.717 174.953 135.307 174.873 134.877 174.873C134.217 174.873 133.627 175.038 133.107 175.368C132.597 175.698 132.192 176.153 131.892 176.733C131.602 177.303 131.457 177.963 131.457 178.713C131.457 179.463 131.602 180.128 131.892 180.708C132.192 181.288 132.602 181.743 133.122 182.073C133.652 182.403 134.252 182.568 134.922 182.568C135.362 182.568 135.772 182.483 136.152 182.313C136.542 182.133 136.887 181.888 137.187 181.578C137.497 181.268 137.742 180.908 137.922 180.498L139.512 181.143C139.262 181.733 138.907 182.258 138.447 182.718C137.987 183.168 137.452 183.518 136.842 183.768C136.232 184.018 135.582 184.143 134.892 184.143ZM141.187 183.963V173.463H144.892C145.612 173.463 146.247 173.603 146.797 173.883C147.347 174.163 147.777 174.553 148.087 175.053C148.397 175.543 148.552 176.113 148.552 176.763C148.552 177.413 148.387 177.988 148.057 178.488C147.737 178.988 147.292 179.383 146.722 179.673C146.152 179.953 145.507 180.093 144.787 180.093H142.927V183.963H141.187ZM147.007 183.963L144.547 179.703L145.897 178.773L148.972 183.963H147.007ZM142.927 178.488H144.967C145.307 178.488 145.607 178.413 145.867 178.263C146.137 178.113 146.352 177.908 146.512 177.648C146.682 177.388 146.767 177.093 146.767 176.763C146.767 176.263 146.587 175.853 146.227 175.533C145.867 175.213 145.402 175.053 144.832 175.053H142.927V178.488Z" fill="white"/>
<path d="M93.9434 129.614V121.764H101.794V124.38H96.5602V129.614H93.9434ZM125.345 129.614V124.38H120.111V121.764H127.962V129.614H125.345ZM93.9434 159.271V151.421H96.5602V156.654H101.794V159.271H93.9434ZM120.111 159.271V156.654H125.345V151.421H127.962V159.271H120.111ZM101.794 150.884C101.794 151.018 101.85 151.141 101.962 151.253C102.073 151.365 102.196 151.421 102.331 151.421H119.574C119.709 151.421 119.832 151.365 119.943 151.253C120.055 151.141 120.111 151.018 120.111 150.884V130.151C120.111 130.017 120.055 129.894 119.943 129.782C119.832 129.67 119.709 129.614 119.574 129.614H102.331C102.196 129.614 102.073 129.67 101.962 129.782C101.85 129.894 101.794 130.017 101.794 130.151V150.884ZM102.331 154.038C101.449 154.038 100.703 153.732 100.093 153.122C99.4823 152.511 99.177 151.765 99.177 150.884V130.151C99.177 129.27 99.4823 128.524 100.093 127.913C100.703 127.303 101.449 126.997 102.331 126.997H119.574C120.456 126.997 121.202 127.303 121.812 127.913C122.423 128.524 122.728 129.27 122.728 130.151V150.884C122.728 151.765 122.423 152.511 121.812 153.122C121.202 153.732 120.456 154.038 119.574 154.038H102.331ZM106.155 136.592H115.75V133.975H106.155V136.592ZM106.155 141.826H115.75V139.209H106.155V141.826ZM106.155 147.059H115.75V144.443H106.155V147.059ZM101.794 150.884V129.614V151.421V150.884Z" fill="white"/>
<circle cx="68.0368" cy="356.14" r="68.0368" fill="#F97D88"/>
<circle cx="189.457" cy="493.259" r="68.0368" fill="#FD9F57"/>
<path d="M67.7682 371.164L63.6732 360.664H65.4132L69.6132 371.164H67.7682ZM59.3832 371.164L63.5682 360.664H65.3232L61.2282 371.164H59.3832ZM61.3482 368.584V367.039H67.6332V368.584H61.3482ZM70.6664 371.164V360.664H72.3464V371.164H70.6664ZM74.2114 371.164V360.664H75.8914V371.164H74.2114ZM32.4121 387.164V376.664H34.1521V385.574H38.9071V387.164H32.4121ZM44.6262 387.164L44.5512 385.754V383.309C44.5512 382.799 44.4962 382.374 44.3862 382.034C44.2862 381.684 44.1162 381.419 43.8762 381.239C43.6462 381.049 43.3362 380.954 42.9462 380.954C42.5862 380.954 42.2712 381.029 42.0012 381.179C41.7312 381.329 41.5012 381.564 41.3112 381.884L39.8412 381.344C40.0012 381.014 40.2112 380.709 40.4712 380.429C40.7412 380.139 41.0762 379.909 41.4762 379.739C41.8862 379.569 42.3762 379.484 42.9462 379.484C43.6762 379.484 44.2862 379.629 44.7762 379.919C45.2662 380.199 45.6262 380.604 45.8562 381.134C46.0962 381.664 46.2162 382.304 46.2162 383.054L46.1712 387.164H44.6262ZM42.4662 387.344C41.5662 387.344 40.8662 387.144 40.3662 386.744C39.8762 386.344 39.6312 385.779 39.6312 385.049C39.6312 384.269 39.8912 383.674 40.4112 383.264C40.9412 382.854 41.6762 382.649 42.6162 382.649H44.6262V383.939H43.1562C42.4862 383.939 42.0162 384.034 41.7462 384.224C41.4762 384.404 41.3412 384.664 41.3412 385.004C41.3412 385.294 41.4562 385.524 41.6862 385.694C41.9262 385.854 42.2562 385.934 42.6762 385.934C43.0562 385.934 43.3862 385.849 43.6662 385.679C43.9462 385.509 44.1612 385.284 44.3112 385.004C44.4712 384.724 44.5512 384.409 44.5512 384.059H45.0462C45.0462 385.079 44.8412 385.884 44.4312 386.474C44.0212 387.054 43.3662 387.344 42.4662 387.344ZM47.9174 387.164V379.664H49.4924L49.5974 381.044V387.164H47.9174ZM53.0024 387.164V383.324H54.6824V387.164H53.0024ZM53.0024 383.324C53.0024 382.724 52.9324 382.264 52.7924 381.944C52.6624 381.614 52.4724 381.384 52.2224 381.254C51.9824 381.124 51.6974 381.059 51.3674 381.059C50.8074 381.049 50.3724 381.234 50.0624 381.614C49.7524 381.994 49.5974 382.539 49.5974 383.249H48.9674C48.9674 382.459 49.0824 381.784 49.3124 381.224C49.5424 380.654 49.8724 380.224 50.3024 379.934C50.7324 379.634 51.2424 379.484 51.8324 379.484C52.4324 379.484 52.9424 379.604 53.3624 379.844C53.7924 380.084 54.1174 380.459 54.3374 380.969C54.5674 381.469 54.6824 382.124 54.6824 382.934V383.324H53.0024ZM59.6092 390.359C59.0792 390.359 58.5992 390.314 58.1692 390.224C57.7492 390.134 57.3942 390.029 57.1042 389.909C56.8142 389.789 56.5892 389.674 56.4292 389.564L57.0742 388.214C57.2142 388.284 57.3992 388.369 57.6292 388.469C57.8692 388.579 58.1492 388.674 58.4692 388.754C58.7892 388.834 59.1492 388.874 59.5492 388.874C59.9792 388.874 60.3642 388.784 60.7042 388.604C61.0442 388.434 61.3092 388.169 61.4992 387.809C61.6892 387.449 61.7842 386.989 61.7842 386.429V379.664H63.4642V386.384C63.4642 387.234 63.3042 387.954 62.9842 388.544C62.6642 389.144 62.2142 389.594 61.6342 389.894C61.0542 390.204 60.3792 390.359 59.6092 390.359ZM59.3542 387.014C58.6742 387.014 58.0792 386.859 57.5692 386.549C57.0692 386.239 56.6742 385.809 56.3842 385.259C56.1042 384.699 55.9642 384.054 55.9642 383.324C55.9642 382.544 56.1042 381.869 56.3842 381.299C56.6742 380.729 57.0692 380.284 57.5692 379.964C58.0792 379.644 58.6742 379.484 59.3542 379.484C59.9642 379.484 60.4942 379.644 60.9442 379.964C61.4042 380.284 61.7592 380.734 62.0092 381.314C62.2592 381.884 62.3842 382.559 62.3842 383.339C62.3842 384.079 62.2592 384.724 62.0092 385.274C61.7592 385.824 61.4042 386.254 60.9442 386.564C60.4942 386.864 59.9642 387.014 59.3542 387.014ZM59.8192 385.589C60.1992 385.589 60.5292 385.489 60.8092 385.289C61.0992 385.089 61.3242 384.819 61.4842 384.479C61.6442 384.129 61.7242 383.729 61.7242 383.279C61.7242 382.819 61.6442 382.419 61.4842 382.079C61.3242 381.729 61.0992 381.459 60.8092 381.269C60.5192 381.069 60.1842 380.969 59.8042 380.969C59.4042 380.969 59.0492 381.069 58.7392 381.269C58.4392 381.459 58.1992 381.729 58.0192 382.079C57.8492 382.419 57.7642 382.819 57.7642 383.279C57.7642 383.729 57.8492 384.129 58.0192 384.479C58.1992 384.819 58.4442 385.089 58.7542 385.289C59.0642 385.489 59.4192 385.589 59.8192 385.589ZM70.3448 387.164L70.2548 385.784V379.664H71.9198V387.164H70.3448ZM65.1548 383.504V379.664H66.8348V383.504H65.1548ZM66.8348 383.504C66.8348 384.094 66.9048 384.554 67.0448 384.884C67.1848 385.214 67.3748 385.444 67.6148 385.574C67.8648 385.704 68.1498 385.769 68.4698 385.769C69.0398 385.779 69.4798 385.594 69.7898 385.214C70.0998 384.834 70.2548 384.289 70.2548 383.579H70.8848C70.8848 384.369 70.7648 385.049 70.5248 385.619C70.2948 386.179 69.9648 386.609 69.5348 386.909C69.1148 387.199 68.6048 387.344 68.0048 387.344C67.4148 387.344 66.9048 387.224 66.4748 386.984C66.0548 386.744 65.7298 386.369 65.4998 385.859C65.2698 385.349 65.1548 384.694 65.1548 383.894V383.504H66.8348ZM78.3616 387.164L78.2866 385.754V383.309C78.2866 382.799 78.2316 382.374 78.1216 382.034C78.0216 381.684 77.8516 381.419 77.6116 381.239C77.3816 381.049 77.0716 380.954 76.6816 380.954C76.3216 380.954 76.0066 381.029 75.7366 381.179C75.4666 381.329 75.2366 381.564 75.0466 381.884L73.5766 381.344C73.7366 381.014 73.9466 380.709 74.2066 380.429C74.4766 380.139 74.8116 379.909 75.2116 379.739C75.6216 379.569 76.1116 379.484 76.6816 379.484C77.4116 379.484 78.0216 379.629 78.5116 379.919C79.0016 380.199 79.3616 380.604 79.5916 381.134C79.8316 381.664 79.9516 382.304 79.9516 383.054L79.9066 387.164H78.3616ZM76.2016 387.344C75.3016 387.344 74.6016 387.144 74.1016 386.744C73.6116 386.344 73.3666 385.779 73.3666 385.049C73.3666 384.269 73.6266 383.674 74.1466 383.264C74.6766 382.854 75.4116 382.649 76.3516 382.649H78.3616V383.939H76.8916C76.2216 383.939 75.7516 384.034 75.4816 384.224C75.2116 384.404 75.0766 384.664 75.0766 385.004C75.0766 385.294 75.1916 385.524 75.4216 385.694C75.6616 385.854 75.9916 385.934 76.4116 385.934C76.7916 385.934 77.1216 385.849 77.4016 385.679C77.6816 385.509 77.8966 385.284 78.0466 385.004C78.2066 384.724 78.2866 384.409 78.2866 384.059H78.7816C78.7816 385.079 78.5766 385.884 78.1666 386.474C77.7566 387.054 77.1016 387.344 76.2016 387.344ZM84.8778 390.359C84.3478 390.359 83.8678 390.314 83.4378 390.224C83.0178 390.134 82.6628 390.029 82.3728 389.909C82.0828 389.789 81.8578 389.674 81.6978 389.564L82.3428 388.214C82.4828 388.284 82.6678 388.369 82.8978 388.469C83.1378 388.579 83.4178 388.674 83.7378 388.754C84.0578 388.834 84.4178 388.874 84.8178 388.874C85.2478 388.874 85.6328 388.784 85.9728 388.604C86.3128 388.434 86.5778 388.169 86.7678 387.809C86.9578 387.449 87.0528 386.989 87.0528 386.429V379.664H88.7328V386.384C88.7328 387.234 88.5728 387.954 88.2528 388.544C87.9328 389.144 87.4828 389.594 86.9028 389.894C86.3228 390.204 85.6478 390.359 84.8778 390.359ZM84.6228 387.014C83.9428 387.014 83.3478 386.859 82.8378 386.549C82.3378 386.239 81.9428 385.809 81.6528 385.259C81.3728 384.699 81.2328 384.054 81.2328 383.324C81.2328 382.544 81.3728 381.869 81.6528 381.299C81.9428 380.729 82.3378 380.284 82.8378 379.964C83.3478 379.644 83.9428 379.484 84.6228 379.484C85.2328 379.484 85.7628 379.644 86.2128 379.964C86.6728 380.284 87.0278 380.734 87.2778 381.314C87.5278 381.884 87.6528 382.559 87.6528 383.339C87.6528 384.079 87.5278 384.724 87.2778 385.274C87.0278 385.824 86.6728 386.254 86.2128 386.564C85.7628 386.864 85.2328 387.014 84.6228 387.014ZM85.0878 385.589C85.4678 385.589 85.7978 385.489 86.0778 385.289C86.3678 385.089 86.5928 384.819 86.7528 384.479C86.9128 384.129 86.9928 383.729 86.9928 383.279C86.9928 382.819 86.9128 382.419 86.7528 382.079C86.5928 381.729 86.3678 381.459 86.0778 381.269C85.7878 381.069 85.4528 380.969 85.0728 380.969C84.6728 380.969 84.3178 381.069 84.0078 381.269C83.7078 381.459 83.4678 381.729 83.2878 382.079C83.1178 382.419 83.0328 382.819 83.0328 383.279C83.0328 383.729 83.1178 384.129 83.2878 384.479C83.4678 384.819 83.7128 385.089 84.0228 385.289C84.3328 385.489 84.6878 385.589 85.0878 385.589ZM93.9333 387.344C93.2033 387.344 92.5533 387.179 91.9833 386.849C91.4233 386.509 90.9783 386.044 90.6483 385.454C90.3283 384.864 90.1683 384.184 90.1683 383.414C90.1683 382.644 90.3333 381.964 90.6633 381.374C90.9933 380.784 91.4433 380.324 92.0133 379.994C92.5933 379.654 93.2533 379.484 93.9933 379.484C94.6633 379.484 95.2683 379.659 95.8083 380.009C96.3483 380.349 96.7733 380.844 97.0833 381.494C97.4033 382.144 97.5633 382.919 97.5633 383.819H91.6683L91.8933 383.609C91.8933 384.069 91.9933 384.469 92.1933 384.809C92.3933 385.139 92.6583 385.394 92.9883 385.574C93.3183 385.754 93.6833 385.844 94.0833 385.844C94.5433 385.844 94.9233 385.744 95.2233 385.544C95.5233 385.334 95.7583 385.064 95.9283 384.734L97.4133 385.364C97.2033 385.764 96.9333 386.114 96.6033 386.414C96.2833 386.714 95.8983 386.944 95.4483 387.104C95.0083 387.264 94.5033 387.344 93.9333 387.344ZM91.9983 382.739L91.7583 382.529H95.9883L95.7633 382.739C95.7633 382.329 95.6733 381.994 95.4933 381.734C95.3133 381.464 95.0833 381.264 94.8033 381.134C94.5333 380.994 94.2483 380.924 93.9483 380.924C93.6483 380.924 93.3483 380.994 93.0483 381.134C92.7483 381.264 92.4983 381.464 92.2983 381.734C92.0983 381.994 91.9983 382.329 91.9983 382.739ZM101.58 387.344C101.08 387.344 100.62 387.269 100.2 387.119C99.78 386.969 99.42 386.759 99.12 386.489C98.82 386.209 98.59 385.884 98.43 385.514L99.885 384.869C100.035 385.149 100.255 385.384 100.545 385.574C100.845 385.764 101.175 385.859 101.535 385.859C101.925 385.859 102.235 385.794 102.465 385.664C102.705 385.524 102.825 385.334 102.825 385.094C102.825 384.864 102.735 384.689 102.555 384.569C102.375 384.439 102.12 384.334 101.79 384.254L101.085 384.059C100.375 383.879 99.82 383.594 99.42 383.204C99.02 382.804 98.82 382.349 98.82 381.839C98.82 381.089 99.06 380.509 99.54 380.099C100.03 379.689 100.73 379.484 101.64 379.484C102.1 379.484 102.52 379.554 102.9 379.694C103.29 379.824 103.625 380.014 103.905 380.264C104.185 380.504 104.38 380.789 104.49 381.119L103.095 381.749C102.995 381.499 102.805 381.309 102.525 381.179C102.245 381.039 101.935 380.969 101.595 380.969C101.255 380.969 100.99 381.044 100.8 381.194C100.61 381.334 100.515 381.534 100.515 381.794C100.515 381.944 100.6 382.084 100.77 382.214C100.94 382.334 101.185 382.434 101.505 382.514L102.39 382.724C102.88 382.844 103.28 383.034 103.59 383.294C103.9 383.544 104.13 383.829 104.28 384.149C104.43 384.459 104.505 384.774 104.505 385.094C104.505 385.544 104.375 385.939 104.115 386.279C103.865 386.619 103.52 386.884 103.08 387.074C102.64 387.254 102.14 387.344 101.58 387.344Z" fill="white"/>
<path d="M67.335 348.529L75.2989 327.965H78.0911L86.0555 348.529H83.2115L81.1864 343.075H72.2041L70.1786 348.529H67.335ZM53.2256 343.268L51.3414 341.383L60.2338 332.474C59.2023 331.431 58.2218 330.193 57.2923 328.76C56.3625 327.327 55.5973 325.87 54.9968 324.389H57.8404C58.3563 325.471 58.9839 326.553 59.7233 327.635C60.4627 328.717 61.2611 329.702 62.1185 330.589C63.3884 329.307 64.5896 327.751 65.7221 325.921C66.8546 324.091 67.6548 322.388 68.1227 320.813H49.082V318.13H60.8082V315.242H63.4905V318.13H75.2167V320.813H70.8389C70.2589 322.821 69.3346 324.92 68.0659 327.111C66.7969 329.301 65.4425 331.107 64.0028 332.529L68.4146 337.047L67.4002 339.801L62.1185 334.385L53.2256 343.268ZM73.0638 340.702H80.3263L76.695 330.947L73.0638 340.702Z" fill="white"/>
<mask id="mask0_5073_709" style="mask-type:alpha" maskUnits="userSpaceOnUse" x="162" y="441" width="58" height="58">
<rect x="162.766" y="441.553" width="57.0457" height="57.0457" fill="#D9D9D9"/>
</mask>
<g mask="url(#mask0_5073_709)">
<path d="M172.986 485.999V464.37L180.117 469.718L191.883 453.139L202.103 461.28H209.591V485.999H172.986ZM181.781 481.959L191.288 468.886L207.927 481.84V462.943H201.509L192.239 455.516L180.474 472.035L174.65 467.697V476.254L181.781 481.959Z" fill="white"/>
</g>
<path d="M156.438 513.518V503.018H160.143C160.863 503.018 161.498 503.158 162.048 503.438C162.598 503.718 163.028 504.108 163.338 504.608C163.648 505.098 163.803 505.668 163.803 506.318C163.803 506.968 163.638 507.543 163.308 508.043C162.988 508.543 162.543 508.938 161.973 509.228C161.403 509.508 160.758 509.648 160.038 509.648H158.178V513.518H156.438ZM162.258 513.518L159.798 509.258L161.148 508.328L164.223 513.518H162.258ZM158.178 508.043H160.218C160.558 508.043 160.858 507.968 161.118 507.818C161.388 507.668 161.603 507.463 161.763 507.203C161.933 506.943 162.018 506.648 162.018 506.318C162.018 505.818 161.838 505.408 161.478 505.088C161.118 504.768 160.653 504.608 160.083 504.608H158.178V508.043ZM169.019 513.698C168.289 513.698 167.639 513.533 167.069 513.203C166.509 512.863 166.064 512.398 165.734 511.808C165.414 511.218 165.254 510.538 165.254 509.768C165.254 508.998 165.419 508.318 165.749 507.728C166.079 507.138 166.529 506.678 167.099 506.348C167.679 506.008 168.339 505.838 169.079 505.838C169.749 505.838 170.354 506.013 170.894 506.363C171.434 506.703 171.859 507.198 172.169 507.848C172.489 508.498 172.649 509.273 172.649 510.173H166.754L166.979 509.963C166.979 510.423 167.079 510.823 167.279 511.163C167.479 511.493 167.744 511.748 168.074 511.928C168.404 512.108 168.769 512.198 169.169 512.198C169.629 512.198 170.009 512.098 170.309 511.898C170.609 511.688 170.844 511.418 171.014 511.088L172.499 511.718C172.289 512.118 172.019 512.468 171.689 512.768C171.369 513.068 170.984 513.298 170.534 513.458C170.094 513.618 169.589 513.698 169.019 513.698ZM167.084 509.093L166.844 508.883H171.074L170.849 509.093C170.849 508.683 170.759 508.348 170.579 508.088C170.399 507.818 170.169 507.618 169.889 507.488C169.619 507.348 169.334 507.278 169.034 507.278C168.734 507.278 168.434 507.348 168.134 507.488C167.834 507.618 167.584 507.818 167.384 508.088C167.184 508.348 167.084 508.683 167.084 509.093ZM178.511 513.518L178.436 512.108V509.663C178.436 509.153 178.381 508.728 178.271 508.388C178.171 508.038 178.001 507.773 177.761 507.593C177.531 507.403 177.221 507.308 176.831 507.308C176.471 507.308 176.156 507.383 175.886 507.533C175.616 507.683 175.386 507.918 175.196 508.238L173.726 507.698C173.886 507.368 174.096 507.063 174.356 506.783C174.626 506.493 174.961 506.263 175.361 506.093C175.771 505.923 176.261 505.838 176.831 505.838C177.561 505.838 178.171 505.983 178.661 506.273C179.151 506.553 179.511 506.958 179.741 507.488C179.981 508.018 180.101 508.658 180.101 509.408L180.056 513.518H178.511ZM176.351 513.698C175.451 513.698 174.751 513.498 174.251 513.098C173.761 512.698 173.516 512.133 173.516 511.403C173.516 510.623 173.776 510.028 174.296 509.618C174.826 509.208 175.561 509.003 176.501 509.003H178.511V510.293H177.041C176.371 510.293 175.901 510.388 175.631 510.578C175.361 510.758 175.226 511.018 175.226 511.358C175.226 511.648 175.341 511.878 175.571 512.048C175.811 512.208 176.141 512.288 176.561 512.288C176.941 512.288 177.271 512.203 177.551 512.033C177.831 511.863 178.046 511.638 178.196 511.358C178.356 511.078 178.436 510.763 178.436 510.413H178.931C178.931 511.433 178.726 512.238 178.316 512.828C177.906 513.408 177.251 513.698 176.351 513.698ZM181.802 513.518V503.018H183.482V513.518H181.802ZM185.257 509.783V508.328H189.757V509.783H185.257ZM194.004 513.518V504.608H190.779V503.018H198.969V504.608H195.744V513.518H194.004ZM200.203 513.518V506.018H201.868V513.518H200.203ZM201.043 504.593C200.773 504.593 200.538 504.498 200.338 504.308C200.148 504.108 200.053 503.873 200.053 503.603C200.053 503.333 200.148 503.103 200.338 502.913C200.538 502.723 200.773 502.628 201.043 502.628C201.313 502.628 201.543 502.723 201.733 502.913C201.933 503.103 202.033 503.333 202.033 503.603C202.033 503.873 201.933 504.108 201.733 504.308C201.543 504.498 201.313 504.593 201.043 504.593ZM203.848 513.518V506.018H205.423L205.498 507.023C205.728 506.633 206.023 506.338 206.383 506.138C206.743 505.938 207.153 505.838 207.613 505.838C208.213 505.838 208.723 505.973 209.143 506.243C209.563 506.513 209.868 506.923 210.058 507.473C210.278 506.943 210.588 506.538 210.988 506.258C211.388 505.978 211.858 505.838 212.398 505.838C213.268 505.838 213.938 506.118 214.408 506.678C214.878 507.228 215.108 508.078 215.098 509.228V513.518H213.433V509.678C213.433 509.078 213.368 508.618 213.238 508.298C213.108 507.968 212.933 507.738 212.713 507.608C212.493 507.478 212.238 507.413 211.948 507.413C211.428 507.403 211.023 507.588 210.733 507.968C210.453 508.348 210.313 508.893 210.313 509.603V513.518H208.633V509.678C208.633 509.078 208.568 508.618 208.438 508.298C208.318 507.968 208.148 507.738 207.928 507.608C207.708 507.478 207.453 507.413 207.163 507.413C206.643 507.403 206.238 507.588 205.948 507.968C205.668 508.348 205.528 508.893 205.528 509.603V513.518H203.848ZM220.157 513.698C219.427 513.698 218.777 513.533 218.207 513.203C217.647 512.863 217.202 512.398 216.872 511.808C216.552 511.218 216.392 510.538 216.392 509.768C216.392 508.998 216.557 508.318 216.887 507.728C217.217 507.138 217.667 506.678 218.237 506.348C218.817 506.008 219.477 505.838 220.217 505.838C220.887 505.838 221.492 506.013 222.032 506.363C222.572 506.703 222.997 507.198 223.307 507.848C223.627 508.498 223.787 509.273 223.787 510.173H217.892L218.117 509.963C218.117 510.423 218.217 510.823 218.417 511.163C218.617 511.493 218.882 511.748 219.212 511.928C219.542 512.108 219.907 512.198 220.307 512.198C220.767 512.198 221.147 512.098 221.447 511.898C221.747 511.688 221.982 511.418 222.152 511.088L223.637 511.718C223.427 512.118 223.157 512.468 222.827 512.768C222.507 513.068 222.122 513.298 221.672 513.458C221.232 513.618 220.727 513.698 220.157 513.698ZM218.222 509.093L217.982 508.883H222.212L221.987 509.093C221.987 508.683 221.897 508.348 221.717 508.088C221.537 507.818 221.307 507.618 221.027 507.488C220.757 507.348 220.472 507.278 220.172 507.278C219.872 507.278 219.572 507.348 219.272 507.488C218.972 507.618 218.722 507.818 218.522 508.088C218.322 508.348 218.222 508.683 218.222 509.093ZM166.445 529.518L162.35 519.018H164.09L168.29 529.518H166.445ZM158.06 529.518L162.245 519.018H164L159.905 529.518H158.06ZM160.025 526.938V525.393H166.31V526.938H160.025ZM169.344 529.518V522.018H170.919L171.024 523.398V529.518H169.344ZM174.429 529.518V525.678H176.109V529.518H174.429ZM174.429 525.678C174.429 525.078 174.359 524.618 174.219 524.298C174.089 523.968 173.899 523.738 173.649 523.608C173.409 523.478 173.124 523.413 172.794 523.413C172.234 523.403 171.799 523.588 171.489 523.968C171.179 524.348 171.024 524.893 171.024 525.603H170.394C170.394 524.813 170.509 524.138 170.739 523.578C170.969 523.008 171.299 522.578 171.729 522.288C172.159 521.988 172.669 521.838 173.259 521.838C173.859 521.838 174.369 521.958 174.789 522.198C175.219 522.438 175.544 522.813 175.764 523.323C175.994 523.823 176.109 524.478 176.109 525.288V525.678H174.429ZM182.385 529.518L182.31 528.108V525.663C182.31 525.153 182.255 524.728 182.145 524.388C182.045 524.038 181.875 523.773 181.635 523.593C181.405 523.403 181.095 523.308 180.705 523.308C180.345 523.308 180.03 523.383 179.76 523.533C179.49 523.683 179.26 523.918 179.07 524.238L177.6 523.698C177.76 523.368 177.97 523.063 178.23 522.783C178.5 522.493 178.835 522.263 179.235 522.093C179.645 521.923 180.135 521.838 180.705 521.838C181.435 521.838 182.045 521.983 182.535 522.273C183.025 522.553 183.385 522.958 183.615 523.488C183.855 524.018 183.975 524.658 183.975 525.408L183.93 529.518H182.385ZM180.225 529.698C179.325 529.698 178.625 529.498 178.125 529.098C177.635 528.698 177.39 528.133 177.39 527.403C177.39 526.623 177.65 526.028 178.17 525.618C178.7 525.208 179.435 525.003 180.375 525.003H182.385V526.293H180.915C180.245 526.293 179.775 526.388 179.505 526.578C179.235 526.758 179.1 527.018 179.1 527.358C179.1 527.648 179.215 527.878 179.445 528.048C179.685 528.208 180.015 528.288 180.435 528.288C180.815 528.288 181.145 528.203 181.425 528.033C181.705 527.863 181.92 527.638 182.07 527.358C182.23 527.078 182.31 526.763 182.31 526.413H182.805C182.805 527.433 182.6 528.238 182.19 528.828C181.78 529.408 181.125 529.698 180.225 529.698ZM185.677 529.518V519.018H187.357V529.518H185.677ZM190.407 532.698C190.167 532.698 189.897 532.653 189.597 532.563C189.307 532.473 189.027 532.358 188.757 532.218L189.387 530.853C189.577 530.943 189.752 531.013 189.912 531.063C190.072 531.123 190.202 531.153 190.302 531.153C190.542 531.153 190.742 531.088 190.902 530.958C191.072 530.838 191.207 530.658 191.307 530.418L192.192 528.348L194.727 522.018H196.557L193.077 530.313C192.867 530.793 192.652 531.213 192.432 531.573C192.222 531.933 191.957 532.208 191.637 532.398C191.317 532.598 190.907 532.698 190.407 532.698ZM191.742 529.518L188.382 522.018H190.212L192.822 528.333L193.362 529.518H191.742ZM200.541 529.698C199.751 529.698 199.146 529.503 198.726 529.113C198.316 528.713 198.111 528.143 198.111 527.403V519.678H199.776V527.088C199.776 527.438 199.856 527.703 200.016 527.883C200.186 528.063 200.431 528.153 200.751 528.153C200.851 528.153 200.961 528.133 201.081 528.093C201.201 528.053 201.336 527.978 201.486 527.868L202.101 529.143C201.841 529.323 201.581 529.458 201.321 529.548C201.061 529.648 200.801 529.698 200.541 529.698ZM196.866 523.458V522.018H201.801V523.458H196.866ZM203.55 529.518V522.018H205.215V529.518H203.55ZM204.39 520.593C204.12 520.593 203.885 520.498 203.685 520.308C203.495 520.108 203.4 519.873 203.4 519.603C203.4 519.333 203.495 519.103 203.685 518.913C203.885 518.723 204.12 518.628 204.39 518.628C204.66 518.628 204.89 518.723 205.08 518.913C205.28 519.103 205.38 519.333 205.38 519.603C205.38 519.873 205.28 520.108 205.08 520.308C204.89 520.498 204.66 520.593 204.39 520.593ZM210.705 529.698C209.935 529.698 209.255 529.533 208.665 529.203C208.075 528.863 207.61 528.398 207.27 527.808C206.94 527.218 206.775 526.538 206.775 525.768C206.775 524.998 206.94 524.318 207.27 523.728C207.61 523.138 208.07 522.678 208.65 522.348C209.24 522.008 209.915 521.838 210.675 521.838C211.415 521.838 212.085 522.018 212.685 522.378C213.285 522.728 213.73 523.233 214.02 523.893L212.46 524.493C212.3 524.163 212.055 523.898 211.725 523.698C211.395 523.498 211.02 523.398 210.6 523.398C210.19 523.398 209.825 523.503 209.505 523.713C209.185 523.913 208.935 524.193 208.755 524.553C208.575 524.903 208.485 525.308 208.485 525.768C208.485 526.228 208.575 526.638 208.755 526.998C208.945 527.348 209.2 527.628 209.52 527.838C209.85 528.038 210.22 528.138 210.63 528.138C211.05 528.138 211.425 528.033 211.755 527.823C212.085 527.603 212.33 527.308 212.49 526.938L214.05 527.538C213.76 528.218 213.315 528.748 212.715 529.128C212.125 529.508 211.455 529.698 210.705 529.698ZM218.084 529.698C217.584 529.698 217.124 529.623 216.704 529.473C216.284 529.323 215.924 529.113 215.624 528.843C215.324 528.563 215.094 528.238 214.934 527.868L216.389 527.223C216.539 527.503 216.759 527.738 217.049 527.928C217.349 528.118 217.679 528.213 218.039 528.213C218.429 528.213 218.739 528.148 218.969 528.018C219.209 527.878 219.329 527.688 219.329 527.448C219.329 527.218 219.239 527.043 219.059 526.923C218.879 526.793 218.624 526.688 218.294 526.608L217.589 526.413C216.879 526.233 216.324 525.948 215.924 525.558C215.524 525.158 215.324 524.703 215.324 524.193C215.324 523.443 215.564 522.863 216.044 522.453C216.534 522.043 217.234 521.838 218.144 521.838C218.604 521.838 219.024 521.908 219.404 522.048C219.794 522.178 220.129 522.368 220.409 522.618C220.689 522.858 220.884 523.143 220.994 523.473L219.599 524.103C219.499 523.853 219.309 523.663 219.029 523.533C218.749 523.393 218.439 523.323 218.099 523.323C217.759 523.323 217.494 523.398 217.304 523.548C217.114 523.688 217.019 523.888 217.019 524.148C217.019 524.298 217.104 524.438 217.274 524.568C217.444 524.688 217.689 524.788 218.009 524.868L218.894 525.078C219.384 525.198 219.784 525.388 220.094 525.648C220.404 525.898 220.634 526.183 220.784 526.503C220.934 526.813 221.009 527.128 221.009 527.448C221.009 527.898 220.879 528.293 220.619 528.633C220.369 528.973 220.024 529.238 219.584 529.428C219.144 529.608 218.644 529.698 218.084 529.698Z" fill="white"/>
<g clip-path="url(#clip2_5073_709)">
<path d="M330.686 324.419C330.076 326.651 328.641 328.513 326.639 329.664C325.318 330.417 323.827 330.815 322.321 330.815C319.24 330.815 316.385 329.138 314.851 326.452L305.748 310.888C304.313 308.401 301.657 306.866 298.789 306.866C295.92 306.866 296.005 307.236 294.784 307.946C292.923 309.026 291.602 310.76 291.048 312.836C290.622 314.399 290.708 316.019 291.219 317.526L291.503 318.038C293.86 322.188 292.412 327.489 288.279 329.863C286.958 330.616 285.467 331.014 283.962 331C280.88 330.986 278.025 329.309 276.491 326.622L257.588 293.392C255.231 289.242 256.68 283.94 260.812 281.566C262.133 280.813 263.624 280.415 265.13 280.429C268.212 280.444 271.066 282.121 272.6 284.807L275.966 290.592C277.372 293.051 280.013 294.572 282.84 294.572C285.666 294.572 285.595 294.202 286.802 293.506C290.594 291.317 291.901 286.427 289.699 282.632L276.96 259.977C274.603 255.826 276.037 250.525 280.17 248.151C281.505 247.384 282.996 247 284.501 247C287.583 247 290.438 248.677 291.972 251.363L329.848 317.824C330.999 319.828 331.297 322.174 330.686 324.405V324.419ZM241.071 310.05L234.752 321.761C232.508 325.94 235.504 331 240.234 331H253.285C258.086 331 261.082 325.784 258.682 321.605L251.95 309.893C249.507 305.658 243.386 305.743 241.057 310.036L241.071 310.05Z" fill="url(#paint0_linear_5073_709)"/>
</g>
<defs>
<linearGradient id="paint0_linear_5073_709" x1="233.999" y1="289" x2="330.999" y2="289" gradientUnits="userSpaceOnUse">
<stop stop-color="#5631DE"/>
<stop offset="0.5" stop-color="#C748B8"/>
<stop offset="1" stop-color="#ED7982"/>
</linearGradient>
<clipPath id="clip0_5073_709">
<rect width="38.7286" height="39.7754" fill="white" transform="translate(494.053 300.664)"/>
</clipPath>
<clipPath id="clip1_5073_709">
<rect width="40.8221" height="40.8221" fill="white" transform="translate(362.166 448.252)"/>
</clipPath>
<clipPath id="clip2_5073_709">
<rect width="97" height="84" fill="white" transform="translate(234 247)"/>
</clipPath>
</defs>
</svg>
