<svg width="200" height="160" viewBox="0 0 200 160" fill="none" xmlns="http://www.w3.org/2000/svg">
<path d="M198.072 21.4844C198.072 18.4497 195.56 16 192.47 16H149.862C146.668 16 144.072 18.5319 144.072 21.6672V86.6349C144.072 88.792 145.352 90.7481 147.34 91.653L158.686 96.8083C159.461 97.1648 159.965 97.9235 159.965 98.7644C159.965 104.752 164.737 109.889 170.853 109.998C176.969 110.108 182.17 105.199 182.17 99.13V99.1118C182.17 98.0514 182.796 97.0917 183.776 96.6529L194.804 91.6439C196.793 90.739 198.072 88.7829 198.072 86.6349V21.4844Z" fill="url(#paint0_linear_4860_848)" fill-opacity="0.2"/>
<path d="M137.072 22.4717C137.072 18.8967 134.18 16 130.611 16H68.4878C64.946 16 62.0723 18.8783 62.0723 22.4258V111.431C62.0723 114.098 63.6189 116.527 66.035 117.655L84.348 126.162C84.2291 126.941 84.1467 127.738 84.1467 128.554C84.1467 137.088 91.0472 144 99.5677 144C108.088 144 114.989 137.088 114.989 128.554C114.989 127.738 114.906 126.941 114.787 126.162L133.265 117.582C135.59 116.5 137.072 114.172 137.072 111.614V22.4717Z" fill="url(#paint1_linear_4860_848)" fill-opacity="0.2"/>
<path d="M55.0631 21.4844C55.0631 18.4497 52.5978 16 49.5642 16H7.75444C4.61091 16 2.07227 18.5319 2.07227 21.6672V86.6349C2.07227 88.792 3.32784 90.7481 5.27994 91.653L16.4152 96.8083C17.1758 97.1648 17.6707 97.9235 17.6707 98.7644C17.6707 104.752 22.354 109.889 28.3569 109.998C34.3598 110.108 39.4646 105.199 39.4646 99.13V99.1118C39.4646 98.0514 40.0787 97.0917 41.041 96.6529L51.8646 91.6439C53.8167 90.739 55.0723 88.7829 55.0723 86.6349V21.4844H55.0631Z" fill="url(#paint2_linear_4860_848)" fill-opacity="0.2"/>
<circle cx="100.572" cy="54.5" r="24.5" fill="white"/>
<mask id="mask0_4860_848" style="mask-type:alpha" maskUnits="userSpaceOnUse" x="81" y="35" width="39" height="39">
<rect x="81.4258" y="35.0684" width="38.016" height="38.016" fill="#D9D9D9"/>
</mask>
<g mask="url(#mask0_4860_848)">
<path d="M100.434 54.0782C98.6913 54.0782 97.1997 53.4579 95.9589 52.2171C94.7181 50.9763 94.0977 49.4846 94.0977 47.7422C94.0977 45.9998 94.7181 44.5083 95.9589 43.2675C97.1997 42.0267 98.6913 41.4062 100.434 41.4062C102.176 41.4062 103.668 42.0267 104.909 43.2675C106.149 44.5083 106.77 45.9998 106.77 47.7422C106.77 49.4846 106.149 50.9763 104.909 52.2171C103.668 53.4579 102.176 54.0782 100.434 54.0782ZM87.7617 66.7502V62.3151C87.7617 61.4174 87.9927 60.5924 88.4547 59.84C88.9167 59.0877 89.5305 58.5135 90.2961 58.1175C91.9329 57.2991 93.5961 56.6852 95.2857 56.276C96.9753 55.8668 98.6913 55.6622 100.434 55.6622C102.176 55.6622 103.892 55.8668 105.582 56.276C107.271 56.6852 108.935 57.2991 110.571 58.1175C111.337 58.5135 111.951 59.0877 112.413 59.84C112.875 60.5924 113.106 61.4174 113.106 62.3151V66.7502H87.7617Z" fill="url(#paint3_linear_4860_848)"/>
</g>
<circle cx="28.6245" cy="41.3433" r="16.896" fill="white"/>
<mask id="mask1_4860_848" style="mask-type:alpha" maskUnits="userSpaceOnUse" x="15" y="27" width="27" height="27">
<rect x="15.4004" y="27.4277" width="26.4459" height="26.4459" fill="#D9D9D9"/>
</mask>
<g mask="url(#mask1_4860_848)">
<path d="M28.6278 40.6532C27.4157 40.6532 26.3781 40.2216 25.5149 39.3584C24.6517 38.4953 24.2202 37.4576 24.2202 36.2455C24.2202 35.0334 24.6517 33.9958 25.5149 33.1326C26.3781 32.2695 27.4157 31.8379 28.6278 31.8379C29.8399 31.8379 30.8775 32.2695 31.7407 33.1326C32.6039 33.9958 33.0355 35.0334 33.0355 36.2455C33.0355 37.4576 32.6039 38.4953 31.7407 39.3584C30.8775 40.2216 29.8399 40.6532 28.6278 40.6532ZM19.8125 49.4685V46.3831C19.8125 45.7587 19.9732 45.1848 20.2946 44.6614C20.616 44.138 21.043 43.7386 21.5756 43.4631C22.7142 42.8938 23.8712 42.4668 25.0466 42.1821C26.222 41.8974 27.4157 41.7551 28.6278 41.7551C29.8399 41.7551 31.0336 41.8974 32.209 42.1821C33.3844 42.4668 34.5414 42.8938 35.68 43.4631C36.2126 43.7386 36.6396 44.138 36.961 44.6614C37.2824 45.1848 37.4431 45.7587 37.4431 46.3831V49.4685H19.8125Z" fill="url(#paint4_linear_4860_848)"/>
</g>
<circle cx="171.183" cy="41.3433" r="16.896" fill="white"/>
<mask id="mask2_4860_848" style="mask-type:alpha" maskUnits="userSpaceOnUse" x="157" y="27" width="28" height="27">
<rect x="157.961" y="27.4277" width="26.4459" height="26.4459" fill="#D9D9D9"/>
</mask>
<g mask="url(#mask2_4860_848)">
<path d="M171.184 40.6532C169.972 40.6532 168.935 40.2216 168.072 39.3584C167.208 38.4953 166.777 37.4576 166.777 36.2455C166.777 35.0334 167.208 33.9958 168.072 33.1326C168.935 32.2695 169.972 31.8379 171.184 31.8379C172.397 31.8379 173.434 32.2695 174.297 33.1326C175.161 33.9958 175.592 35.0334 175.592 36.2455C175.592 37.4576 175.161 38.4953 174.297 39.3584C173.434 40.2216 172.397 40.6532 171.184 40.6532ZM162.369 49.4685V46.3831C162.369 45.7587 162.53 45.1848 162.851 44.6614C163.173 44.138 163.6 43.7386 164.132 43.4631C165.271 42.8938 166.428 42.4668 167.603 42.1821C168.779 41.8974 169.972 41.7551 171.184 41.7551C172.397 41.7551 173.59 41.8974 174.766 42.1821C175.941 42.4668 177.098 42.8938 178.237 43.4631C178.769 43.7386 179.196 44.138 179.518 44.6614C179.839 45.1848 180 45.7587 180 46.3831V49.4685H162.369Z" fill="url(#paint5_linear_4860_848)"/>
</g>
<path d="M100.072 148C109.461 148 117.072 140.389 117.072 131C117.072 121.611 109.461 114 100.072 114C90.6834 114 83.0723 121.611 83.0723 131C83.0723 140.389 90.6834 148 100.072 148Z" fill="url(#paint6_linear_4860_848)"/>
<path d="M98.7723 138V125.72L99.0923 124H101.832V138H98.7723ZM95.8923 128.8V125.88C96.2523 125.907 96.6189 125.827 96.9923 125.64C97.3789 125.453 97.7523 125.207 98.1123 124.9C98.4856 124.58 98.8123 124.267 99.0923 123.96L101.132 125.94C100.639 126.5 100.112 127.013 99.5523 127.48C98.9923 127.933 98.4123 128.287 97.8123 128.54C97.2123 128.78 96.5723 128.867 95.8923 128.8Z" fill="white"/>
<path d="M28.0723 113C35.252 113 41.0723 107.404 41.0723 100.5C41.0723 93.5964 35.252 88 28.0723 88C20.8926 88 15.0723 93.5964 15.0723 100.5C15.0723 107.404 20.8926 113 28.0723 113Z" fill="url(#paint7_linear_4860_848)"/>
<path d="M24.7443 105V103.376C24.7443 103.124 24.8376 102.835 25.0243 102.508C25.2109 102.172 25.4676 101.831 25.7943 101.486C26.1303 101.141 26.5083 100.823 26.9283 100.534L28.1603 99.694C28.3469 99.5727 28.5336 99.4327 28.7203 99.274C28.9069 99.106 29.0609 98.9287 29.1823 98.742C29.3036 98.546 29.3643 98.35 29.3643 98.154C29.3643 97.9487 29.3129 97.7667 29.2103 97.608C29.1169 97.44 28.9723 97.314 28.7763 97.23C28.5896 97.1367 28.3423 97.09 28.0343 97.09C27.8009 97.09 27.5909 97.1413 27.4043 97.244C27.2269 97.3373 27.0776 97.468 26.9563 97.636C26.8443 97.7947 26.7603 97.972 26.7043 98.168L24.3803 97.776C24.4736 97.2907 24.6743 96.838 24.9823 96.418C25.2996 95.998 25.7149 95.662 26.2283 95.41C26.7509 95.1487 27.3483 95.018 28.0203 95.018C28.7856 95.018 29.4389 95.1533 29.9803 95.424C30.5216 95.6853 30.9369 96.0493 31.2263 96.516C31.5249 96.9827 31.6743 97.524 31.6743 98.14C31.6743 98.7933 31.4923 99.358 31.1283 99.834C30.7736 100.31 30.3023 100.749 29.7143 101.15L28.6363 101.892C28.4123 102.041 28.2069 102.209 28.0203 102.396C27.8336 102.583 27.6703 102.793 27.5303 103.026H31.7863V105H24.7443Z" fill="white"/>
<path d="M171.572 113C178.476 113 184.072 107.404 184.072 100.5C184.072 93.5964 178.476 88 171.572 88C164.669 88 159.072 93.5964 159.072 100.5C159.072 107.404 164.669 113 171.572 113Z" fill="url(#paint8_linear_4860_848)"/>
<path d="M172.076 105.168C171.46 105.168 170.896 105.075 170.382 104.888C169.878 104.701 169.458 104.431 169.122 104.076C168.796 103.712 168.581 103.269 168.478 102.746L170.606 102.228C170.662 102.34 170.732 102.475 170.816 102.634C170.91 102.793 171.045 102.933 171.222 103.054C171.4 103.166 171.638 103.222 171.936 103.222C172.328 103.222 172.636 103.119 172.86 102.914C173.084 102.699 173.196 102.419 173.196 102.074C173.196 101.869 173.145 101.677 173.042 101.5C172.949 101.313 172.772 101.169 172.51 101.066C172.258 100.954 171.899 100.898 171.432 100.898H170.704V99.442H171.348C171.899 99.442 172.417 99.512 172.902 99.652C173.397 99.7827 173.836 99.9787 174.218 100.24C174.601 100.501 174.9 100.809 175.114 101.164C175.338 101.519 175.45 101.92 175.45 102.368C175.45 102.965 175.292 103.474 174.974 103.894C174.657 104.314 174.242 104.631 173.728 104.846C173.215 105.061 172.664 105.168 172.076 105.168ZM170.704 100.436V99.078H171.432C172.02 99.078 172.436 98.98 172.678 98.784C172.921 98.588 173.042 98.322 173.042 97.986C173.042 97.79 172.996 97.6173 172.902 97.468C172.809 97.3187 172.678 97.202 172.51 97.118C172.342 97.0247 172.151 96.978 171.936 96.978C171.778 96.978 171.614 97.006 171.446 97.062C171.278 97.118 171.124 97.216 170.984 97.356C170.844 97.496 170.737 97.6967 170.662 97.958L168.562 97.454C168.665 96.922 168.889 96.4787 169.234 96.124C169.589 95.76 170.009 95.4893 170.494 95.312C170.98 95.1253 171.479 95.032 171.992 95.032C172.608 95.032 173.164 95.1487 173.658 95.382C174.162 95.606 174.559 95.9233 174.848 96.334C175.147 96.7353 175.296 97.2067 175.296 97.748C175.296 98.2147 175.18 98.616 174.946 98.952C174.722 99.288 174.419 99.568 174.036 99.792C173.663 100.007 173.243 100.17 172.776 100.282C172.31 100.385 171.834 100.436 171.348 100.436H170.704Z" fill="white"/>
<rect x="158.072" y="67" width="27" height="4" rx="2" fill="white"/>
<rect x="158.072" y="75" width="27" height="4" rx="2" fill="white"/>
<rect x="14.0723" y="67" width="28" height="4" rx="2" fill="white"/>
<rect x="14.0723" y="75" width="28" height="4" rx="2" fill="white"/>
<rect x="78.0723" y="89" width="44" height="5" rx="2.5" fill="white"/>
<rect x="78.0723" y="100" width="44" height="5" rx="2.5" fill="white"/>
<defs>
<linearGradient id="paint0_linear_4860_848" x1="144.072" y1="65.1364" x2="198.072" y2="65.1364" gradientUnits="userSpaceOnUse">
<stop stop-color="#F449D4"/>
<stop offset="0.99" stop-color="#FD9F57"/>
</linearGradient>
<linearGradient id="paint1_linear_4860_848" x1="62.0723" y1="82.1466" x2="137.072" y2="82.1466" gradientUnits="userSpaceOnUse">
<stop stop-color="#F449D4"/>
<stop offset="0.99" stop-color="#FD9F57"/>
</linearGradient>
<linearGradient id="paint2_linear_4860_848" x1="2.07227" y1="65.1364" x2="55.0723" y2="65.1364" gradientUnits="userSpaceOnUse">
<stop stop-color="#F449D4"/>
<stop offset="0.99" stop-color="#FD9F57"/>
</linearGradient>
<linearGradient id="paint3_linear_4860_848" x1="87.7617" y1="54.0859" x2="113.106" y2="54.0859" gradientUnits="userSpaceOnUse">
<stop stop-color="#F449D4"/>
<stop offset="0.99" stop-color="#FD9F57"/>
</linearGradient>
<linearGradient id="paint4_linear_4860_848" x1="19.8125" y1="40.6585" x2="37.4431" y2="40.6585" gradientUnits="userSpaceOnUse">
<stop stop-color="#F449D4"/>
<stop offset="0.99" stop-color="#FD9F57"/>
</linearGradient>
<linearGradient id="paint5_linear_4860_848" x1="162.369" y1="40.6585" x2="180" y2="40.6585" gradientUnits="userSpaceOnUse">
<stop stop-color="#F449D4"/>
<stop offset="0.99" stop-color="#FD9F57"/>
</linearGradient>
<linearGradient id="paint6_linear_4860_848" x1="83.0723" y1="131.01" x2="117.072" y2="131.01" gradientUnits="userSpaceOnUse">
<stop stop-color="#F449D4"/>
<stop offset="0.99" stop-color="#FD9F57"/>
</linearGradient>
<linearGradient id="paint7_linear_4860_848" x1="15.0723" y1="100.508" x2="41.0723" y2="100.508" gradientUnits="userSpaceOnUse">
<stop stop-color="#F449D4"/>
<stop offset="0.99" stop-color="#FD9F57"/>
</linearGradient>
<linearGradient id="paint8_linear_4860_848" x1="159.072" y1="100.508" x2="184.072" y2="100.508" gradientUnits="userSpaceOnUse">
<stop stop-color="#F449D4"/>
<stop offset="0.99" stop-color="#FD9F57"/>
</linearGradient>
</defs>
</svg>
