<svg width="180" height="32" viewBox="0 0 180 32" fill="none" xmlns="http://www.w3.org/2000/svg">
<g clip-path="url(#clip0_5011_1195)">
<path d="M37.1794 29.492C36.9462 30.3437 36.3948 31.0529 35.6247 31.4914C35.1195 31.7789 34.545 31.93 33.9668 31.9275C32.7826 31.9227 31.6822 31.286 31.0943 30.264L28.0093 24.9013C27.9899 24.9182 27.9729 24.9375 27.9534 24.9544L27.5951 24.3371C27.0461 23.3899 26.021 22.8028 24.9206 22.8028C24.3826 22.8028 23.8506 22.9454 23.3817 23.2148C22.6676 23.6243 22.1574 24.2863 21.9449 25.0776C21.7833 25.6757 21.8113 26.2918 22.0093 26.8644L22.121 27.0589C23.0283 28.6403 22.4732 30.6615 20.8833 31.5639C20.3769 31.8514 19.8036 32.0012 19.2242 31.9988C18.04 31.9928 16.9396 31.3549 16.3542 30.3329L9.08367 17.6744C8.17638 16.0931 8.73144 14.0719 10.3213 13.1695C10.8278 12.8819 11.4011 12.7321 11.9804 12.7345C13.1647 12.7406 14.2651 13.3785 14.8505 14.4005L15.8064 16.0653C15.81 16.0568 15.8137 16.0484 15.8173 16.0399L16.1465 16.6065C16.6894 17.5428 17.7036 18.1239 18.7918 18.1239C19.3238 18.1239 19.8497 17.9837 20.3137 17.7167C21.77 16.8807 22.2716 15.0203 21.4299 13.5718L20.5165 11.9976C20.5372 11.9916 20.5578 11.9867 20.5773 11.9807L16.5291 4.94234C15.6206 3.36215 16.1732 1.3398 17.7619 0.436151C18.2671 0.148624 18.8404 -0.00238764 19.4198 2.85459e-05C20.604 0.00486092 21.7044 0.641527 22.2923 1.66357L36.8588 26.9852C37.2997 27.7512 37.4138 28.6415 37.1806 29.492H37.1794ZM2.72047 24.0181L0.292515 28.4796C-0.572268 30.0695 0.584015 32.0012 2.40225 32.0012H7.41969C9.26586 32.0012 10.4197 30.0127 9.49663 28.4229L6.90714 23.9614C5.96948 22.3461 3.61319 22.3776 2.72047 24.0181Z" fill="url(#paint0_linear_5011_1195)"/>
<path d="M67.3559 25.6439V10.4484H70.2065V12.4575C71.1272 10.7915 73.0572 9.95312 74.8086 9.95312C76.56 9.95312 78.5799 10.8689 79.4106 12.8779C80.5864 10.7034 82.5941 9.95312 84.5119 9.95312C86.4297 9.95312 89.7783 11.7846 89.7783 15.8027V25.7333H86.8512V16.1325C86.8512 14.1235 85.8406 12.623 83.5912 12.623C81.3418 12.623 80.0762 14.289 80.0762 16.4635V25.7333H77.0592V16.1325C77.0592 14.1235 76.1385 12.623 73.7993 12.623C71.46 12.623 70.1944 14.2129 70.1944 16.4635V25.6439H67.3438H67.3571H67.3559Z" fill="white"/>
<path d="M67.3559 25.6439V10.4484H70.2065V12.4575C71.1272 10.7915 73.0572 9.95312 74.8086 9.95312C76.56 9.95312 78.5799 10.8689 79.4106 12.8779C80.5864 10.7034 82.5941 9.95312 84.5119 9.95312C86.4297 9.95312 89.7783 11.7846 89.7783 15.8027V25.7333H86.8512V16.1325C86.8512 14.1235 85.8406 12.623 83.5912 12.623C81.3418 12.623 80.0762 14.289 80.0762 16.4635V25.7333H77.0592V16.1325C77.0592 14.1235 76.1385 12.623 73.7993 12.623C71.46 12.623 70.1944 14.2129 70.1944 16.4635V25.6439H67.3438H67.3571H67.3559Z" fill="#3D3D4F"/>
<path d="M94.7148 31.4681V10.3603H97.642V12.687C98.4728 11.1999 100.314 9.95312 102.743 9.95312C107.345 9.95312 109.761 13.4373 109.761 17.8371C109.761 22.237 107.089 25.8867 102.653 25.8867C98.2177 25.8867 98.5626 24.8054 97.7185 23.3944V31.4814H94.7148V31.4681ZM102.154 12.5976C99.3934 12.5976 97.642 14.835 97.642 17.9133C97.642 20.9915 99.4833 23.305 102.154 23.305C104.825 23.305 106.666 21.0676 106.666 17.9133C106.666 14.7589 104.991 12.5976 102.154 12.5976Z" fill="white"/>
<path d="M94.7148 31.4681V10.3603H97.642V12.687C98.4728 11.1999 100.314 9.95312 102.743 9.95312C107.345 9.95312 109.761 13.4373 109.761 17.8371C109.761 22.237 107.089 25.8867 102.653 25.8867C98.2177 25.8867 98.5626 24.8054 97.7185 23.3944V31.4814H94.7148V31.4681ZM102.154 12.5976C99.3934 12.5976 97.642 14.835 97.642 17.9133C97.642 20.9915 99.4833 23.305 102.154 23.305C104.825 23.305 106.666 21.0676 106.666 17.9133C106.666 14.7589 104.991 12.5976 102.154 12.5976Z" fill="#3D3D4F"/>
<path d="M113.584 25.4522V3.68359H116.588V25.4522H113.584Z" fill="white"/>
<path d="M113.584 25.4522V3.68359H116.588V25.4522H113.584Z" fill="#3D3D4F"/>
<path d="M122.979 3.68359C124.104 3.68359 125.076 4.59933 125.076 5.84487C125.076 7.09042 124.194 7.93004 122.979 7.93004C121.765 7.93004 120.973 7.01431 120.973 5.84487C120.973 4.67544 121.854 3.68359 122.979 3.68359ZM121.612 25.6431V10.4985H124.425V25.7192H121.612V25.6298V25.6431Z" fill="white"/>
<path d="M122.979 3.68359C124.104 3.68359 125.076 4.59933 125.076 5.84487C125.076 7.09042 124.194 7.93004 122.979 7.93004C121.765 7.93004 120.973 7.01431 120.973 5.84487C120.973 4.67544 121.854 3.68359 122.979 3.68359ZM121.612 25.6431V10.4985H124.425V25.7192H121.612V25.6298V25.6431Z" fill="#3D3D4F"/>
<path d="M59.9684 10.1194V12.4595C59.1376 11.1245 57.3728 9.95508 55.0335 9.95508C50.5213 9.95508 47.9258 13.4646 47.9258 18.0674C47.9258 22.6703 50.3549 26.0143 54.9436 26.0143C59.5323 26.0143 59.2008 24.8448 60.0449 23.255V25.5951H62.972V10.1327H59.9684V10.1194ZM55.455 23.3311C52.6942 23.3311 50.9428 21.0671 50.9428 17.978C50.9428 14.8889 52.6942 12.5489 55.455 12.5489C58.2157 12.5489 59.9672 14.8128 59.9672 17.978C59.9672 21.1432 58.2157 23.3311 55.455 23.3311Z" fill="white"/>
<path d="M59.9684 10.1194V12.4595C59.1376 11.1245 57.3728 9.95508 55.0335 9.95508C50.5213 9.95508 47.9258 13.4646 47.9258 18.0674C47.9258 22.6703 50.3549 26.0143 54.9436 26.0143C59.5323 26.0143 59.2008 24.8448 60.0449 23.255V25.5951H62.972V10.1327H59.9684V10.1194ZM55.455 23.3311C52.6942 23.3311 50.9428 21.0671 50.9428 17.978C50.9428 14.8889 52.6942 12.5489 55.455 12.5489C58.2157 12.5489 59.9672 14.8128 59.9672 17.978C59.9672 21.1432 58.2157 23.3311 55.455 23.3311Z" fill="#3D3D4F"/>
<path d="M132.188 16.8926V25.8349H129.201V3.5625H132.188V12.407C133.204 10.9331 134.751 10.1949 136.826 10.1949C138.584 10.1949 139.934 10.7531 140.877 11.8694C141.819 12.9868 142.291 14.4293 142.291 16.198V25.8349H139.304V16.7029C139.304 14.1539 138.117 12.8793 135.747 12.8793C134.645 12.8793 133.787 13.2538 133.173 14.0016C132.558 14.7495 132.23 15.7135 132.188 16.8926Z" fill="white"/>
<path d="M132.188 16.8926V25.8349H129.201V3.5625H132.188V12.407C133.204 10.9331 134.751 10.1949 136.826 10.1949C138.584 10.1949 139.934 10.7531 140.877 11.8694C141.819 12.9868 142.291 14.4293 142.291 16.198V25.8349H139.304V16.7029C139.304 14.1539 138.117 12.8793 135.747 12.8793C134.645 12.8793 133.787 13.2538 133.173 14.0016C132.558 14.7495 132.23 15.7135 132.188 16.8926Z" fill="#3D3D4F"/>
<path d="M147.008 7.23243C146.595 6.82168 146.389 6.32153 146.389 5.73198C146.389 5.14243 146.595 4.63744 147.008 4.21582C147.421 3.79419 147.924 3.58398 148.517 3.58398C149.109 3.58398 149.617 3.78936 150.041 4.20011C150.465 4.61086 150.676 5.12189 150.676 5.73318C150.676 6.34448 150.464 6.82288 150.041 7.23364C149.617 7.64439 149.109 7.84976 148.517 7.84976C147.924 7.84976 147.421 7.64439 147.008 7.23364V7.23243ZM150.011 25.8359H147.057V10.6368H150.011V25.8359Z" fill="white"/>
<path d="M147.008 7.23243C146.595 6.82168 146.389 6.32153 146.389 5.73198C146.389 5.14243 146.595 4.63744 147.008 4.21582C147.421 3.79419 147.924 3.58398 148.517 3.58398C149.109 3.58398 149.617 3.78936 150.041 4.20011C150.465 4.61086 150.676 5.12189 150.676 5.73318C150.676 6.34448 150.464 6.82288 150.041 7.23364C149.617 7.64439 149.109 7.84976 148.517 7.84976C147.924 7.84976 147.421 7.64439 147.008 7.23364V7.23243ZM150.011 25.8359H147.057V10.6368H150.011V25.8359Z" fill="#3D3D4F"/>
<path d="M163.575 10.4783V13.6386C163.131 13.5758 162.696 13.5432 162.273 13.5432C159.477 13.5432 158.08 15.1028 158.08 18.2197V25.8343H155.094V10.6353H158.016V13.2895C158.948 11.3517 160.473 10.3828 162.59 10.3828C162.929 10.3828 163.257 10.4142 163.575 10.4783Z" fill="white"/>
<path d="M163.575 10.4783V13.6386C163.131 13.5758 162.696 13.5432 162.273 13.5432C159.477 13.5432 158.08 15.1028 158.08 18.2197V25.8343H155.094V10.6353H158.016V13.2895C158.948 11.3517 160.473 10.3828 162.59 10.3828C162.929 10.3828 163.257 10.4142 163.575 10.4783Z" fill="#3D3D4F"/>
<path d="M177.329 20.6206L179.903 21.5049C179.458 22.916 178.633 24.0697 177.425 24.9649C176.218 25.8601 174.757 26.3083 173.042 26.3083C170.903 26.3083 169.087 25.5762 167.593 24.112C166.1 22.6478 165.354 20.6737 165.354 18.1875C165.354 15.8704 166.074 13.9531 167.514 12.4369C168.955 10.9208 170.67 10.1621 172.66 10.1621C174.968 10.1621 176.769 10.8833 178.06 12.327C179.352 13.7707 179.999 15.7036 179.999 18.1259C179.999 18.5052 179.977 18.8205 179.936 19.0742H168.436C168.457 20.4225 168.907 21.5291 169.787 22.3916C170.665 23.2554 171.751 23.6867 173.043 23.6867C175.224 23.6867 176.654 22.6647 177.332 20.6218L177.329 20.6206ZM168.53 16.6713H176.885C176.842 15.5333 176.461 14.6019 175.741 13.8746C175.02 13.1473 174.004 12.7849 172.691 12.7849C171.504 12.7849 170.53 13.1691 169.769 13.9386C169.006 14.7082 168.593 15.6191 168.53 16.6713Z" fill="white"/>
<path d="M177.329 20.6206L179.903 21.5049C179.458 22.916 178.633 24.0697 177.425 24.9649C176.218 25.8601 174.757 26.3083 173.042 26.3083C170.903 26.3083 169.087 25.5762 167.593 24.112C166.1 22.6478 165.354 20.6737 165.354 18.1875C165.354 15.8704 166.074 13.9531 167.514 12.4369C168.955 10.9208 170.67 10.1621 172.66 10.1621C174.968 10.1621 176.769 10.8833 178.06 12.327C179.352 13.7707 179.999 15.7036 179.999 18.1259C179.999 18.5052 179.977 18.8205 179.936 19.0742H168.436C168.457 20.4225 168.907 21.5291 169.787 22.3916C170.665 23.2554 171.751 23.6867 173.043 23.6867C175.224 23.6867 176.654 22.6647 177.332 20.6218L177.329 20.6206ZM168.53 16.6713H176.885C176.842 15.5333 176.461 14.6019 175.741 13.8746C175.02 13.1473 174.004 12.7849 172.691 12.7849C171.504 12.7849 170.53 13.1691 169.769 13.9386C169.006 14.7082 168.593 15.6191 168.53 16.6713Z" fill="#3D3D4F"/>
</g>
<defs>
<linearGradient id="paint0_linear_5011_1195" x1="0" y1="16.0102" x2="37.2988" y2="16.0102" gradientUnits="userSpaceOnUse">
<stop stop-color="#5631DE"/>
<stop offset="0.495" stop-color="#C748B8"/>
<stop offset="0.99" stop-color="#ED7982"/>
</linearGradient>
<clipPath id="clip0_5011_1195">
<rect width="180" height="32" fill="white"/>
</clipPath>
</defs>
</svg>
