<?xml version="1.0" encoding="utf-8"?>
<svg width="683" height="591" viewBox="0 0 683 591" fill="none" xmlns="http://www.w3.org/2000/svg">
  <g clip-path="url(#clip0_5073_700)">
    <path d="M 680.8 544.7 C 676.5 560.4 666.4 573.5 652.3 581.6 C 643 586.9 632.5 589.7 621.9 589.7 C 600.2 589.7 580.1 577.9 569.3 559 L 505.2 449.5 C 495.1 432 470.826 422.854 461.593 421.922 C 452.36 420.99 442.186 421.292 432.777 425.771 C 419.103 432.281 405.6 448.6 401.7 463.2 C 398.7 474.2 398.786 487.582 403.12 495.907 L 404.9 499.8 C 421.5 529 411.3 566.3 382.2 583 C 372.9 588.3 362.4 591.1 351.8 591 C 330.1 590.9 310 579.1 299.2 560.2 L 166.1 326.4 C 149.5 297.2 159.7 259.9 188.8 243.2 C 198.1 237.9 208.6 235.1 219.2 235.2 C 240.9 235.3 261 247.1 271.8 266 L 295.5 306.7 C 305.4 324 327.952 334.524 343.9 334.7 C 359.848 334.876 367.486 329.677 371.8 327.2 C 399.398 311.357 407.7 277.4 392.2 250.7 L 302.5 91.3 C 285.9 62.1 296 24.8 325.1 8.1 C 334.5 2.7 345 0 355.6 0 C 377.3 0 397.4 11.8 408.2 30.7 L 674.9 498.3 C 683 512.4 685.1 528.9 680.8 544.6 L 680.8 544.7 Z M 49.8 443.6 L 5.3 526 C -10.5 555.4 10.6 591 43.9 591 L 135.8 591 C 169.6 591 190.7 554.3 173.8 524.9 L 126.4 442.5 C 109.2 412.7 66.1 413.3 49.7 443.5 L 49.8 443.6 Z" fill="url(#paint0_linear_5073_700)"/>
  </g>
  <defs>
    <linearGradient id="paint0_linear_5073_700" x1="4.27289e-05" y1="295.5" x2="683" y2="295.5" gradientUnits="userSpaceOnUse">
      <stop stop-color="#5631DE"/>
      <stop offset="0.5" stop-color="#C748B8"/>
      <stop offset="1" stop-color="#ED7982"/>
    </linearGradient>
    <clipPath id="clip0_5073_700">
      <rect width="683" height="591" fill="white"/>
    </clipPath>
  </defs>
</svg>